G04 #@! TF.GenerationSoftware,KiCad,Pcbnew,(5.1.6)-1*
G04 #@! TF.CreationDate,2021-04-01T10:41:09+07:00*
G04 #@! TF.ProjectId,esp-avr-usb-converter,6573702d-6176-4722-9d75-73622d636f6e,rev?*
G04 #@! TF.SameCoordinates,Original*
G04 #@! TF.FileFunction,Paste,Bot*
G04 #@! TF.FilePolarity,Positive*
%FSLAX46Y46*%
G04 Gerber Fmt 4.6, Leading zero omitted, Abs format (unit mm)*
G04 Created by KiCad (PCBNEW (5.1.6)-1) date 2021-04-01 10:41:09*
%MOMM*%
%LPD*%
G01*
G04 APERTURE LIST*
%ADD10R,1.060000X0.650000*%
G04 APERTURE END LIST*
G04 #@! TO.C,C1*
G36*
G01*
X131587500Y-84243750D02*
X131587500Y-85156250D01*
G75*
G02*
X131343750Y-85400000I-243750J0D01*
G01*
X130856250Y-85400000D01*
G75*
G02*
X130612500Y-85156250I0J243750D01*
G01*
X130612500Y-84243750D01*
G75*
G02*
X130856250Y-84000000I243750J0D01*
G01*
X131343750Y-84000000D01*
G75*
G02*
X131587500Y-84243750I0J-243750D01*
G01*
G37*
G36*
G01*
X133462500Y-84243750D02*
X133462500Y-85156250D01*
G75*
G02*
X133218750Y-85400000I-243750J0D01*
G01*
X132731250Y-85400000D01*
G75*
G02*
X132487500Y-85156250I0J243750D01*
G01*
X132487500Y-84243750D01*
G75*
G02*
X132731250Y-84000000I243750J0D01*
G01*
X133218750Y-84000000D01*
G75*
G02*
X133462500Y-84243750I0J-243750D01*
G01*
G37*
G04 #@! TD*
G04 #@! TO.C,C2*
G36*
G01*
X129175000Y-91556250D02*
X129175000Y-90643750D01*
G75*
G02*
X129418750Y-90400000I243750J0D01*
G01*
X129906250Y-90400000D01*
G75*
G02*
X130150000Y-90643750I0J-243750D01*
G01*
X130150000Y-91556250D01*
G75*
G02*
X129906250Y-91800000I-243750J0D01*
G01*
X129418750Y-91800000D01*
G75*
G02*
X129175000Y-91556250I0J243750D01*
G01*
G37*
G36*
G01*
X131050000Y-91556250D02*
X131050000Y-90643750D01*
G75*
G02*
X131293750Y-90400000I243750J0D01*
G01*
X131781250Y-90400000D01*
G75*
G02*
X132025000Y-90643750I0J-243750D01*
G01*
X132025000Y-91556250D01*
G75*
G02*
X131781250Y-91800000I-243750J0D01*
G01*
X131293750Y-91800000D01*
G75*
G02*
X131050000Y-91556250I0J243750D01*
G01*
G37*
G04 #@! TD*
G04 #@! TO.C,R1*
G36*
G01*
X133443750Y-86862500D02*
X133956250Y-86862500D01*
G75*
G02*
X134175000Y-87081250I0J-218750D01*
G01*
X134175000Y-87518750D01*
G75*
G02*
X133956250Y-87737500I-218750J0D01*
G01*
X133443750Y-87737500D01*
G75*
G02*
X133225000Y-87518750I0J218750D01*
G01*
X133225000Y-87081250D01*
G75*
G02*
X133443750Y-86862500I218750J0D01*
G01*
G37*
G36*
G01*
X133443750Y-88437500D02*
X133956250Y-88437500D01*
G75*
G02*
X134175000Y-88656250I0J-218750D01*
G01*
X134175000Y-89093750D01*
G75*
G02*
X133956250Y-89312500I-218750J0D01*
G01*
X133443750Y-89312500D01*
G75*
G02*
X133225000Y-89093750I0J218750D01*
G01*
X133225000Y-88656250D01*
G75*
G02*
X133443750Y-88437500I218750J0D01*
G01*
G37*
G04 #@! TD*
G04 #@! TO.C,R2*
G36*
G01*
X139262500Y-87256250D02*
X139262500Y-86743750D01*
G75*
G02*
X139481250Y-86525000I218750J0D01*
G01*
X139918750Y-86525000D01*
G75*
G02*
X140137500Y-86743750I0J-218750D01*
G01*
X140137500Y-87256250D01*
G75*
G02*
X139918750Y-87475000I-218750J0D01*
G01*
X139481250Y-87475000D01*
G75*
G02*
X139262500Y-87256250I0J218750D01*
G01*
G37*
G36*
G01*
X137687500Y-87256250D02*
X137687500Y-86743750D01*
G75*
G02*
X137906250Y-86525000I218750J0D01*
G01*
X138343750Y-86525000D01*
G75*
G02*
X138562500Y-86743750I0J-218750D01*
G01*
X138562500Y-87256250D01*
G75*
G02*
X138343750Y-87475000I-218750J0D01*
G01*
X137906250Y-87475000D01*
G75*
G02*
X137687500Y-87256250I0J218750D01*
G01*
G37*
G04 #@! TD*
G04 #@! TO.C,R3*
G36*
G01*
X141487500Y-89056250D02*
X141487500Y-88543750D01*
G75*
G02*
X141706250Y-88325000I218750J0D01*
G01*
X142143750Y-88325000D01*
G75*
G02*
X142362500Y-88543750I0J-218750D01*
G01*
X142362500Y-89056250D01*
G75*
G02*
X142143750Y-89275000I-218750J0D01*
G01*
X141706250Y-89275000D01*
G75*
G02*
X141487500Y-89056250I0J218750D01*
G01*
G37*
G36*
G01*
X143062500Y-89056250D02*
X143062500Y-88543750D01*
G75*
G02*
X143281250Y-88325000I218750J0D01*
G01*
X143718750Y-88325000D01*
G75*
G02*
X143937500Y-88543750I0J-218750D01*
G01*
X143937500Y-89056250D01*
G75*
G02*
X143718750Y-89275000I-218750J0D01*
G01*
X143281250Y-89275000D01*
G75*
G02*
X143062500Y-89056250I0J218750D01*
G01*
G37*
G04 #@! TD*
G04 #@! TO.C,R4*
G36*
G01*
X144943750Y-88362500D02*
X145456250Y-88362500D01*
G75*
G02*
X145675000Y-88581250I0J-218750D01*
G01*
X145675000Y-89018750D01*
G75*
G02*
X145456250Y-89237500I-218750J0D01*
G01*
X144943750Y-89237500D01*
G75*
G02*
X144725000Y-89018750I0J218750D01*
G01*
X144725000Y-88581250D01*
G75*
G02*
X144943750Y-88362500I218750J0D01*
G01*
G37*
G36*
G01*
X144943750Y-86787500D02*
X145456250Y-86787500D01*
G75*
G02*
X145675000Y-87006250I0J-218750D01*
G01*
X145675000Y-87443750D01*
G75*
G02*
X145456250Y-87662500I-218750J0D01*
G01*
X144943750Y-87662500D01*
G75*
G02*
X144725000Y-87443750I0J218750D01*
G01*
X144725000Y-87006250D01*
G75*
G02*
X144943750Y-86787500I218750J0D01*
G01*
G37*
G04 #@! TD*
D10*
G04 #@! TO.C,U1*
X131800000Y-87150000D03*
X131800000Y-88100000D03*
X131800000Y-89050000D03*
X129600000Y-89050000D03*
X129600000Y-87150000D03*
G04 #@! TD*
G04 #@! TO.C,D2*
G36*
G01*
X133362500Y-82500000D02*
X133362500Y-83300000D01*
G75*
G02*
X133112500Y-83550000I-250000J0D01*
G01*
X132287500Y-83550000D01*
G75*
G02*
X132037500Y-83300000I0J250000D01*
G01*
X132037500Y-82500000D01*
G75*
G02*
X132287500Y-82250000I250000J0D01*
G01*
X133112500Y-82250000D01*
G75*
G02*
X133362500Y-82500000I0J-250000D01*
G01*
G37*
G36*
G01*
X131437500Y-82500000D02*
X131437500Y-83300000D01*
G75*
G02*
X131187500Y-83550000I-250000J0D01*
G01*
X130362500Y-83550000D01*
G75*
G02*
X130112500Y-83300000I0J250000D01*
G01*
X130112500Y-82500000D01*
G75*
G02*
X130362500Y-82250000I250000J0D01*
G01*
X131187500Y-82250000D01*
G75*
G02*
X131437500Y-82500000I0J-250000D01*
G01*
G37*
G04 #@! TD*
M02*
