G04 #@! TF.GenerationSoftware,KiCad,Pcbnew,(5.1.6)-1*
G04 #@! TF.CreationDate,2021-04-01T10:41:09+07:00*
G04 #@! TF.ProjectId,esp-avr-usb-converter,6573702d-6176-4722-9d75-73622d636f6e,rev?*
G04 #@! TF.SameCoordinates,Original*
G04 #@! TF.FileFunction,Soldermask,Bot*
G04 #@! TF.FilePolarity,Negative*
%FSLAX46Y46*%
G04 Gerber Fmt 4.6, Leading zero omitted, Abs format (unit mm)*
G04 Created by KiCad (PCBNEW (5.1.6)-1) date 2021-04-01 10:41:09*
%MOMM*%
%LPD*%
G01*
G04 APERTURE LIST*
%ADD10C,1.000000*%
%ADD11R,1.800000X1.800000*%
%ADD12O,1.800000X1.800000*%
%ADD13O,1.300000X1.624000*%
%ADD14O,1.400000X1.624000*%
%ADD15R,1.160000X0.750000*%
G04 APERTURE END LIST*
G04 #@! TO.C,C1*
G36*
G01*
X131637500Y-84218750D02*
X131637500Y-85181250D01*
G75*
G02*
X131368750Y-85450000I-268750J0D01*
G01*
X130831250Y-85450000D01*
G75*
G02*
X130562500Y-85181250I0J268750D01*
G01*
X130562500Y-84218750D01*
G75*
G02*
X130831250Y-83950000I268750J0D01*
G01*
X131368750Y-83950000D01*
G75*
G02*
X131637500Y-84218750I0J-268750D01*
G01*
G37*
G36*
G01*
X133512500Y-84218750D02*
X133512500Y-85181250D01*
G75*
G02*
X133243750Y-85450000I-268750J0D01*
G01*
X132706250Y-85450000D01*
G75*
G02*
X132437500Y-85181250I0J268750D01*
G01*
X132437500Y-84218750D01*
G75*
G02*
X132706250Y-83950000I268750J0D01*
G01*
X133243750Y-83950000D01*
G75*
G02*
X133512500Y-84218750I0J-268750D01*
G01*
G37*
G04 #@! TD*
G04 #@! TO.C,C2*
G36*
G01*
X129125000Y-91581250D02*
X129125000Y-90618750D01*
G75*
G02*
X129393750Y-90350000I268750J0D01*
G01*
X129931250Y-90350000D01*
G75*
G02*
X130200000Y-90618750I0J-268750D01*
G01*
X130200000Y-91581250D01*
G75*
G02*
X129931250Y-91850000I-268750J0D01*
G01*
X129393750Y-91850000D01*
G75*
G02*
X129125000Y-91581250I0J268750D01*
G01*
G37*
G36*
G01*
X131000000Y-91581250D02*
X131000000Y-90618750D01*
G75*
G02*
X131268750Y-90350000I268750J0D01*
G01*
X131806250Y-90350000D01*
G75*
G02*
X132075000Y-90618750I0J-268750D01*
G01*
X132075000Y-91581250D01*
G75*
G02*
X131806250Y-91850000I-268750J0D01*
G01*
X131268750Y-91850000D01*
G75*
G02*
X131000000Y-91581250I0J268750D01*
G01*
G37*
G04 #@! TD*
D10*
G04 #@! TO.C,J1*
X120400000Y-85900000D03*
X120400000Y-90300000D03*
G04 #@! TD*
D11*
G04 #@! TO.C,J2*
X150900000Y-81600000D03*
D12*
X150900000Y-84140000D03*
X150900000Y-86680000D03*
X150900000Y-89220000D03*
X150900000Y-91760000D03*
X150900000Y-94300000D03*
G04 #@! TD*
G04 #@! TO.C,R1*
G36*
G01*
X133418750Y-86812500D02*
X133981250Y-86812500D01*
G75*
G02*
X134225000Y-87056250I0J-243750D01*
G01*
X134225000Y-87543750D01*
G75*
G02*
X133981250Y-87787500I-243750J0D01*
G01*
X133418750Y-87787500D01*
G75*
G02*
X133175000Y-87543750I0J243750D01*
G01*
X133175000Y-87056250D01*
G75*
G02*
X133418750Y-86812500I243750J0D01*
G01*
G37*
G36*
G01*
X133418750Y-88387500D02*
X133981250Y-88387500D01*
G75*
G02*
X134225000Y-88631250I0J-243750D01*
G01*
X134225000Y-89118750D01*
G75*
G02*
X133981250Y-89362500I-243750J0D01*
G01*
X133418750Y-89362500D01*
G75*
G02*
X133175000Y-89118750I0J243750D01*
G01*
X133175000Y-88631250D01*
G75*
G02*
X133418750Y-88387500I243750J0D01*
G01*
G37*
G04 #@! TD*
G04 #@! TO.C,R2*
G36*
G01*
X139212500Y-87281250D02*
X139212500Y-86718750D01*
G75*
G02*
X139456250Y-86475000I243750J0D01*
G01*
X139943750Y-86475000D01*
G75*
G02*
X140187500Y-86718750I0J-243750D01*
G01*
X140187500Y-87281250D01*
G75*
G02*
X139943750Y-87525000I-243750J0D01*
G01*
X139456250Y-87525000D01*
G75*
G02*
X139212500Y-87281250I0J243750D01*
G01*
G37*
G36*
G01*
X137637500Y-87281250D02*
X137637500Y-86718750D01*
G75*
G02*
X137881250Y-86475000I243750J0D01*
G01*
X138368750Y-86475000D01*
G75*
G02*
X138612500Y-86718750I0J-243750D01*
G01*
X138612500Y-87281250D01*
G75*
G02*
X138368750Y-87525000I-243750J0D01*
G01*
X137881250Y-87525000D01*
G75*
G02*
X137637500Y-87281250I0J243750D01*
G01*
G37*
G04 #@! TD*
G04 #@! TO.C,R3*
G36*
G01*
X141437500Y-89081250D02*
X141437500Y-88518750D01*
G75*
G02*
X141681250Y-88275000I243750J0D01*
G01*
X142168750Y-88275000D01*
G75*
G02*
X142412500Y-88518750I0J-243750D01*
G01*
X142412500Y-89081250D01*
G75*
G02*
X142168750Y-89325000I-243750J0D01*
G01*
X141681250Y-89325000D01*
G75*
G02*
X141437500Y-89081250I0J243750D01*
G01*
G37*
G36*
G01*
X143012500Y-89081250D02*
X143012500Y-88518750D01*
G75*
G02*
X143256250Y-88275000I243750J0D01*
G01*
X143743750Y-88275000D01*
G75*
G02*
X143987500Y-88518750I0J-243750D01*
G01*
X143987500Y-89081250D01*
G75*
G02*
X143743750Y-89325000I-243750J0D01*
G01*
X143256250Y-89325000D01*
G75*
G02*
X143012500Y-89081250I0J243750D01*
G01*
G37*
G04 #@! TD*
G04 #@! TO.C,R4*
G36*
G01*
X144918750Y-88312500D02*
X145481250Y-88312500D01*
G75*
G02*
X145725000Y-88556250I0J-243750D01*
G01*
X145725000Y-89043750D01*
G75*
G02*
X145481250Y-89287500I-243750J0D01*
G01*
X144918750Y-89287500D01*
G75*
G02*
X144675000Y-89043750I0J243750D01*
G01*
X144675000Y-88556250D01*
G75*
G02*
X144918750Y-88312500I243750J0D01*
G01*
G37*
G36*
G01*
X144918750Y-86737500D02*
X145481250Y-86737500D01*
G75*
G02*
X145725000Y-86981250I0J-243750D01*
G01*
X145725000Y-87468750D01*
G75*
G02*
X145481250Y-87712500I-243750J0D01*
G01*
X144918750Y-87712500D01*
G75*
G02*
X144675000Y-87468750I0J243750D01*
G01*
X144675000Y-86981250D01*
G75*
G02*
X144918750Y-86737500I243750J0D01*
G01*
G37*
G04 #@! TD*
D13*
G04 #@! TO.C,SW1*
X140900000Y-93700000D03*
D14*
X142900000Y-93700000D03*
D13*
X138900000Y-93700000D03*
G04 #@! TD*
G04 #@! TO.C,SW2*
X143000000Y-82200000D03*
D14*
X139000000Y-82200000D03*
D13*
X141000000Y-82200000D03*
G04 #@! TD*
D15*
G04 #@! TO.C,U1*
X131800000Y-87150000D03*
X131800000Y-88100000D03*
X131800000Y-89050000D03*
X129600000Y-89050000D03*
X129600000Y-87150000D03*
G04 #@! TD*
G04 #@! TO.C,D2*
G36*
G01*
X133412500Y-82469231D02*
X133412500Y-83330769D01*
G75*
G02*
X133143269Y-83600000I-269231J0D01*
G01*
X132256731Y-83600000D01*
G75*
G02*
X131987500Y-83330769I0J269231D01*
G01*
X131987500Y-82469231D01*
G75*
G02*
X132256731Y-82200000I269231J0D01*
G01*
X133143269Y-82200000D01*
G75*
G02*
X133412500Y-82469231I0J-269231D01*
G01*
G37*
G36*
G01*
X131487500Y-82469231D02*
X131487500Y-83330769D01*
G75*
G02*
X131218269Y-83600000I-269231J0D01*
G01*
X130331731Y-83600000D01*
G75*
G02*
X130062500Y-83330769I0J269231D01*
G01*
X130062500Y-82469231D01*
G75*
G02*
X130331731Y-82200000I269231J0D01*
G01*
X131218269Y-82200000D01*
G75*
G02*
X131487500Y-82469231I0J-269231D01*
G01*
G37*
G04 #@! TD*
M02*
