G04 #@! TF.GenerationSoftware,KiCad,Pcbnew,(5.1.6)-1*
G04 #@! TF.CreationDate,2021-04-01T10:41:09+07:00*
G04 #@! TF.ProjectId,esp-avr-usb-converter,6573702d-6176-4722-9d75-73622d636f6e,rev?*
G04 #@! TF.SameCoordinates,Original*
G04 #@! TF.FileFunction,Copper,L1,Top*
G04 #@! TF.FilePolarity,Positive*
%FSLAX46Y46*%
G04 Gerber Fmt 4.6, Leading zero omitted, Abs format (unit mm)*
G04 Created by KiCad (PCBNEW (5.1.6)-1) date 2021-04-01 10:41:09*
%MOMM*%
%LPD*%
G01*
G04 APERTURE LIST*
G04 #@! TA.AperFunction,SMDPad,CuDef*
%ADD10R,2.500000X2.000000*%
G04 #@! TD*
G04 #@! TA.AperFunction,SMDPad,CuDef*
%ADD11R,2.500000X0.500000*%
G04 #@! TD*
G04 #@! TA.AperFunction,ComponentPad*
%ADD12R,1.700000X1.700000*%
G04 #@! TD*
G04 #@! TA.AperFunction,ComponentPad*
%ADD13O,1.700000X1.700000*%
G04 #@! TD*
G04 #@! TA.AperFunction,SMDPad,CuDef*
%ADD14R,0.800000X0.900000*%
G04 #@! TD*
G04 #@! TA.AperFunction,ComponentPad*
%ADD15O,1.200000X1.524000*%
G04 #@! TD*
G04 #@! TA.AperFunction,ComponentPad*
%ADD16O,1.300000X1.524000*%
G04 #@! TD*
G04 #@! TA.AperFunction,SMDPad,CuDef*
%ADD17R,3.350000X3.350000*%
G04 #@! TD*
G04 #@! TA.AperFunction,ViaPad*
%ADD18C,0.800000*%
G04 #@! TD*
G04 #@! TA.AperFunction,Conductor*
%ADD19C,0.250000*%
G04 #@! TD*
G04 #@! TA.AperFunction,Conductor*
%ADD20C,0.254000*%
G04 #@! TD*
G04 APERTURE END LIST*
G04 #@! TO.P,C3,2*
G04 #@! TO.N,/CP2102N-GQFN28/DTR*
G04 #@! TA.AperFunction,SMDPad,CuDef*
G36*
G01*
X139956250Y-87362500D02*
X139443750Y-87362500D01*
G75*
G02*
X139225000Y-87143750I0J218750D01*
G01*
X139225000Y-86706250D01*
G75*
G02*
X139443750Y-86487500I218750J0D01*
G01*
X139956250Y-86487500D01*
G75*
G02*
X140175000Y-86706250I0J-218750D01*
G01*
X140175000Y-87143750D01*
G75*
G02*
X139956250Y-87362500I-218750J0D01*
G01*
G37*
G04 #@! TD.AperFunction*
G04 #@! TO.P,C3,1*
G04 #@! TO.N,Net-(C3-Pad1)*
G04 #@! TA.AperFunction,SMDPad,CuDef*
G36*
G01*
X139956250Y-88937500D02*
X139443750Y-88937500D01*
G75*
G02*
X139225000Y-88718750I0J218750D01*
G01*
X139225000Y-88281250D01*
G75*
G02*
X139443750Y-88062500I218750J0D01*
G01*
X139956250Y-88062500D01*
G75*
G02*
X140175000Y-88281250I0J-218750D01*
G01*
X140175000Y-88718750D01*
G75*
G02*
X139956250Y-88937500I-218750J0D01*
G01*
G37*
G04 #@! TD.AperFunction*
G04 #@! TD*
G04 #@! TO.P,C4,1*
G04 #@! TO.N,Net-(C4-Pad1)*
G04 #@! TA.AperFunction,SMDPad,CuDef*
G36*
G01*
X127243750Y-92187500D02*
X127756250Y-92187500D01*
G75*
G02*
X127975000Y-92406250I0J-218750D01*
G01*
X127975000Y-92843750D01*
G75*
G02*
X127756250Y-93062500I-218750J0D01*
G01*
X127243750Y-93062500D01*
G75*
G02*
X127025000Y-92843750I0J218750D01*
G01*
X127025000Y-92406250D01*
G75*
G02*
X127243750Y-92187500I218750J0D01*
G01*
G37*
G04 #@! TD.AperFunction*
G04 #@! TO.P,C4,2*
G04 #@! TO.N,GND*
G04 #@! TA.AperFunction,SMDPad,CuDef*
G36*
G01*
X127243750Y-93762500D02*
X127756250Y-93762500D01*
G75*
G02*
X127975000Y-93981250I0J-218750D01*
G01*
X127975000Y-94418750D01*
G75*
G02*
X127756250Y-94637500I-218750J0D01*
G01*
X127243750Y-94637500D01*
G75*
G02*
X127025000Y-94418750I0J218750D01*
G01*
X127025000Y-93981250D01*
G75*
G02*
X127243750Y-93762500I218750J0D01*
G01*
G37*
G04 #@! TD.AperFunction*
G04 #@! TD*
G04 #@! TO.P,C5,2*
G04 #@! TO.N,GND*
G04 #@! TA.AperFunction,SMDPad,CuDef*
G36*
G01*
X128843750Y-93762500D02*
X129356250Y-93762500D01*
G75*
G02*
X129575000Y-93981250I0J-218750D01*
G01*
X129575000Y-94418750D01*
G75*
G02*
X129356250Y-94637500I-218750J0D01*
G01*
X128843750Y-94637500D01*
G75*
G02*
X128625000Y-94418750I0J218750D01*
G01*
X128625000Y-93981250D01*
G75*
G02*
X128843750Y-93762500I218750J0D01*
G01*
G37*
G04 #@! TD.AperFunction*
G04 #@! TO.P,C5,1*
G04 #@! TO.N,Net-(C4-Pad1)*
G04 #@! TA.AperFunction,SMDPad,CuDef*
G36*
G01*
X128843750Y-92187500D02*
X129356250Y-92187500D01*
G75*
G02*
X129575000Y-92406250I0J-218750D01*
G01*
X129575000Y-92843750D01*
G75*
G02*
X129356250Y-93062500I-218750J0D01*
G01*
X128843750Y-93062500D01*
G75*
G02*
X128625000Y-92843750I0J218750D01*
G01*
X128625000Y-92406250D01*
G75*
G02*
X128843750Y-92187500I218750J0D01*
G01*
G37*
G04 #@! TD.AperFunction*
G04 #@! TD*
G04 #@! TO.P,C6,1*
G04 #@! TO.N,GND*
G04 #@! TA.AperFunction,SMDPad,CuDef*
G36*
G01*
X127756250Y-91412500D02*
X127243750Y-91412500D01*
G75*
G02*
X127025000Y-91193750I0J218750D01*
G01*
X127025000Y-90756250D01*
G75*
G02*
X127243750Y-90537500I218750J0D01*
G01*
X127756250Y-90537500D01*
G75*
G02*
X127975000Y-90756250I0J-218750D01*
G01*
X127975000Y-91193750D01*
G75*
G02*
X127756250Y-91412500I-218750J0D01*
G01*
G37*
G04 #@! TD.AperFunction*
G04 #@! TO.P,C6,2*
G04 #@! TO.N,/CP2102N-GQFN28/VDD*
G04 #@! TA.AperFunction,SMDPad,CuDef*
G36*
G01*
X127756250Y-89837500D02*
X127243750Y-89837500D01*
G75*
G02*
X127025000Y-89618750I0J218750D01*
G01*
X127025000Y-89181250D01*
G75*
G02*
X127243750Y-88962500I218750J0D01*
G01*
X127756250Y-88962500D01*
G75*
G02*
X127975000Y-89181250I0J-218750D01*
G01*
X127975000Y-89618750D01*
G75*
G02*
X127756250Y-89837500I-218750J0D01*
G01*
G37*
G04 #@! TD.AperFunction*
G04 #@! TD*
G04 #@! TO.P,D1,2*
G04 #@! TO.N,Net-(D1-Pad2)*
G04 #@! TA.AperFunction,SMDPad,CuDef*
G36*
G01*
X144943750Y-88337500D02*
X145456250Y-88337500D01*
G75*
G02*
X145675000Y-88556250I0J-218750D01*
G01*
X145675000Y-88993750D01*
G75*
G02*
X145456250Y-89212500I-218750J0D01*
G01*
X144943750Y-89212500D01*
G75*
G02*
X144725000Y-88993750I0J218750D01*
G01*
X144725000Y-88556250D01*
G75*
G02*
X144943750Y-88337500I218750J0D01*
G01*
G37*
G04 #@! TD.AperFunction*
G04 #@! TO.P,D1,1*
G04 #@! TO.N,GND*
G04 #@! TA.AperFunction,SMDPad,CuDef*
G36*
G01*
X144943750Y-86762500D02*
X145456250Y-86762500D01*
G75*
G02*
X145675000Y-86981250I0J-218750D01*
G01*
X145675000Y-87418750D01*
G75*
G02*
X145456250Y-87637500I-218750J0D01*
G01*
X144943750Y-87637500D01*
G75*
G02*
X144725000Y-87418750I0J218750D01*
G01*
X144725000Y-86981250D01*
G75*
G02*
X144943750Y-86762500I218750J0D01*
G01*
G37*
G04 #@! TD.AperFunction*
G04 #@! TD*
G04 #@! TO.P,D3,1*
G04 #@! TO.N,Net-(D3-Pad1)*
G04 #@! TA.AperFunction,SMDPad,CuDef*
G36*
G01*
X130537500Y-80843750D02*
X130537500Y-81356250D01*
G75*
G02*
X130318750Y-81575000I-218750J0D01*
G01*
X129881250Y-81575000D01*
G75*
G02*
X129662500Y-81356250I0J218750D01*
G01*
X129662500Y-80843750D01*
G75*
G02*
X129881250Y-80625000I218750J0D01*
G01*
X130318750Y-80625000D01*
G75*
G02*
X130537500Y-80843750I0J-218750D01*
G01*
G37*
G04 #@! TD.AperFunction*
G04 #@! TO.P,D3,2*
G04 #@! TO.N,+3V3*
G04 #@! TA.AperFunction,SMDPad,CuDef*
G36*
G01*
X128962500Y-80843750D02*
X128962500Y-81356250D01*
G75*
G02*
X128743750Y-81575000I-218750J0D01*
G01*
X128306250Y-81575000D01*
G75*
G02*
X128087500Y-81356250I0J218750D01*
G01*
X128087500Y-80843750D01*
G75*
G02*
X128306250Y-80625000I218750J0D01*
G01*
X128743750Y-80625000D01*
G75*
G02*
X128962500Y-80843750I0J-218750D01*
G01*
G37*
G04 #@! TD.AperFunction*
G04 #@! TD*
G04 #@! TO.P,D4,2*
G04 #@! TO.N,+3V3*
G04 #@! TA.AperFunction,SMDPad,CuDef*
G36*
G01*
X128950000Y-82443750D02*
X128950000Y-82956250D01*
G75*
G02*
X128731250Y-83175000I-218750J0D01*
G01*
X128293750Y-83175000D01*
G75*
G02*
X128075000Y-82956250I0J218750D01*
G01*
X128075000Y-82443750D01*
G75*
G02*
X128293750Y-82225000I218750J0D01*
G01*
X128731250Y-82225000D01*
G75*
G02*
X128950000Y-82443750I0J-218750D01*
G01*
G37*
G04 #@! TD.AperFunction*
G04 #@! TO.P,D4,1*
G04 #@! TO.N,Net-(D4-Pad1)*
G04 #@! TA.AperFunction,SMDPad,CuDef*
G36*
G01*
X130525000Y-82443750D02*
X130525000Y-82956250D01*
G75*
G02*
X130306250Y-83175000I-218750J0D01*
G01*
X129868750Y-83175000D01*
G75*
G02*
X129650000Y-82956250I0J218750D01*
G01*
X129650000Y-82443750D01*
G75*
G02*
X129868750Y-82225000I218750J0D01*
G01*
X130306250Y-82225000D01*
G75*
G02*
X130525000Y-82443750I0J-218750D01*
G01*
G37*
G04 #@! TD.AperFunction*
G04 #@! TD*
D10*
G04 #@! TO.P,J1,6*
G04 #@! TO.N,GND*
X117500000Y-83700000D03*
X117500000Y-92500000D03*
X123000000Y-83700000D03*
X123000000Y-92500000D03*
D11*
G04 #@! TO.P,J1,1*
G04 #@! TO.N,/CP2102N-GQFN28/VBUS*
X123000000Y-86500000D03*
G04 #@! TO.P,J1,2*
G04 #@! TO.N,/CP2102N-GQFN28/D-*
X123000000Y-87300000D03*
G04 #@! TO.P,J1,3*
G04 #@! TO.N,/CP2102N-GQFN28/D+*
X123000000Y-88100000D03*
G04 #@! TO.P,J1,4*
G04 #@! TO.N,Net-(J1-Pad4)*
X123000000Y-88900000D03*
G04 #@! TO.P,J1,5*
G04 #@! TO.N,GND*
X123000000Y-89700000D03*
G04 #@! TD*
D12*
G04 #@! TO.P,J2,1*
G04 #@! TO.N,/DTR*
X150900000Y-81600000D03*
D13*
G04 #@! TO.P,J2,2*
G04 #@! TO.N,/RX*
X150900000Y-84140000D03*
G04 #@! TO.P,J2,3*
G04 #@! TO.N,/TX*
X150900000Y-86680000D03*
G04 #@! TO.P,J2,4*
G04 #@! TO.N,/VCC*
X150900000Y-89220000D03*
G04 #@! TO.P,J2,5*
G04 #@! TO.N,/EN*
X150900000Y-91760000D03*
G04 #@! TO.P,J2,6*
G04 #@! TO.N,GND*
X150900000Y-94300000D03*
G04 #@! TD*
D14*
G04 #@! TO.P,Q1,3*
G04 #@! TO.N,/EN*
X142500000Y-86800000D03*
G04 #@! TO.P,Q1,2*
G04 #@! TO.N,/CP2102N-GQFN28/RST*
X143450000Y-88800000D03*
G04 #@! TO.P,Q1,1*
G04 #@! TO.N,Net-(Q1-Pad1)*
X141550000Y-88800000D03*
G04 #@! TD*
G04 #@! TO.P,Q2,1*
G04 #@! TO.N,Net-(Q2-Pad1)*
X135850000Y-88800000D03*
G04 #@! TO.P,Q2,2*
G04 #@! TO.N,Net-(Q2-Pad2)*
X137750000Y-88800000D03*
G04 #@! TO.P,Q2,3*
G04 #@! TO.N,/CP2102N-GQFN28/DTR*
X136800000Y-86800000D03*
G04 #@! TD*
G04 #@! TO.P,R5,1*
G04 #@! TO.N,Net-(R5-Pad1)*
G04 #@! TA.AperFunction,SMDPad,CuDef*
G36*
G01*
X130262500Y-92856250D02*
X130262500Y-92343750D01*
G75*
G02*
X130481250Y-92125000I218750J0D01*
G01*
X130918750Y-92125000D01*
G75*
G02*
X131137500Y-92343750I0J-218750D01*
G01*
X131137500Y-92856250D01*
G75*
G02*
X130918750Y-93075000I-218750J0D01*
G01*
X130481250Y-93075000D01*
G75*
G02*
X130262500Y-92856250I0J218750D01*
G01*
G37*
G04 #@! TD.AperFunction*
G04 #@! TO.P,R5,2*
G04 #@! TO.N,GND*
G04 #@! TA.AperFunction,SMDPad,CuDef*
G36*
G01*
X131837500Y-92856250D02*
X131837500Y-92343750D01*
G75*
G02*
X132056250Y-92125000I218750J0D01*
G01*
X132493750Y-92125000D01*
G75*
G02*
X132712500Y-92343750I0J-218750D01*
G01*
X132712500Y-92856250D01*
G75*
G02*
X132493750Y-93075000I-218750J0D01*
G01*
X132056250Y-93075000D01*
G75*
G02*
X131837500Y-92856250I0J218750D01*
G01*
G37*
G04 #@! TD.AperFunction*
G04 #@! TD*
G04 #@! TO.P,R6,2*
G04 #@! TO.N,Net-(R5-Pad1)*
G04 #@! TA.AperFunction,SMDPad,CuDef*
G36*
G01*
X131137500Y-93943750D02*
X131137500Y-94456250D01*
G75*
G02*
X130918750Y-94675000I-218750J0D01*
G01*
X130481250Y-94675000D01*
G75*
G02*
X130262500Y-94456250I0J218750D01*
G01*
X130262500Y-93943750D01*
G75*
G02*
X130481250Y-93725000I218750J0D01*
G01*
X130918750Y-93725000D01*
G75*
G02*
X131137500Y-93943750I0J-218750D01*
G01*
G37*
G04 #@! TD.AperFunction*
G04 #@! TO.P,R6,1*
G04 #@! TO.N,Net-(C4-Pad1)*
G04 #@! TA.AperFunction,SMDPad,CuDef*
G36*
G01*
X132712500Y-93943750D02*
X132712500Y-94456250D01*
G75*
G02*
X132493750Y-94675000I-218750J0D01*
G01*
X132056250Y-94675000D01*
G75*
G02*
X131837500Y-94456250I0J218750D01*
G01*
X131837500Y-93943750D01*
G75*
G02*
X132056250Y-93725000I218750J0D01*
G01*
X132493750Y-93725000D01*
G75*
G02*
X132712500Y-93943750I0J-218750D01*
G01*
G37*
G04 #@! TD.AperFunction*
G04 #@! TD*
G04 #@! TO.P,R7,1*
G04 #@! TO.N,Net-(D3-Pad1)*
G04 #@! TA.AperFunction,SMDPad,CuDef*
G36*
G01*
X131187500Y-81356250D02*
X131187500Y-80843750D01*
G75*
G02*
X131406250Y-80625000I218750J0D01*
G01*
X131843750Y-80625000D01*
G75*
G02*
X132062500Y-80843750I0J-218750D01*
G01*
X132062500Y-81356250D01*
G75*
G02*
X131843750Y-81575000I-218750J0D01*
G01*
X131406250Y-81575000D01*
G75*
G02*
X131187500Y-81356250I0J218750D01*
G01*
G37*
G04 #@! TD.AperFunction*
G04 #@! TO.P,R7,2*
G04 #@! TO.N,/TX*
G04 #@! TA.AperFunction,SMDPad,CuDef*
G36*
G01*
X132762500Y-81356250D02*
X132762500Y-80843750D01*
G75*
G02*
X132981250Y-80625000I218750J0D01*
G01*
X133418750Y-80625000D01*
G75*
G02*
X133637500Y-80843750I0J-218750D01*
G01*
X133637500Y-81356250D01*
G75*
G02*
X133418750Y-81575000I-218750J0D01*
G01*
X132981250Y-81575000D01*
G75*
G02*
X132762500Y-81356250I0J218750D01*
G01*
G37*
G04 #@! TD.AperFunction*
G04 #@! TD*
G04 #@! TO.P,R8,2*
G04 #@! TO.N,/RX*
G04 #@! TA.AperFunction,SMDPad,CuDef*
G36*
G01*
X132762500Y-82956250D02*
X132762500Y-82443750D01*
G75*
G02*
X132981250Y-82225000I218750J0D01*
G01*
X133418750Y-82225000D01*
G75*
G02*
X133637500Y-82443750I0J-218750D01*
G01*
X133637500Y-82956250D01*
G75*
G02*
X133418750Y-83175000I-218750J0D01*
G01*
X132981250Y-83175000D01*
G75*
G02*
X132762500Y-82956250I0J218750D01*
G01*
G37*
G04 #@! TD.AperFunction*
G04 #@! TO.P,R8,1*
G04 #@! TO.N,Net-(D4-Pad1)*
G04 #@! TA.AperFunction,SMDPad,CuDef*
G36*
G01*
X131187500Y-82956250D02*
X131187500Y-82443750D01*
G75*
G02*
X131406250Y-82225000I218750J0D01*
G01*
X131843750Y-82225000D01*
G75*
G02*
X132062500Y-82443750I0J-218750D01*
G01*
X132062500Y-82956250D01*
G75*
G02*
X131843750Y-83175000I-218750J0D01*
G01*
X131406250Y-83175000D01*
G75*
G02*
X131187500Y-82956250I0J218750D01*
G01*
G37*
G04 #@! TD.AperFunction*
G04 #@! TD*
D15*
G04 #@! TO.P,SW1,2*
G04 #@! TO.N,/DTR*
X140900000Y-93700000D03*
D16*
G04 #@! TO.P,SW1,3*
G04 #@! TO.N,Net-(C3-Pad1)*
X142900000Y-93700000D03*
D15*
G04 #@! TO.P,SW1,1*
G04 #@! TO.N,Net-(Q2-Pad2)*
X138900000Y-93700000D03*
G04 #@! TD*
G04 #@! TO.P,SW2,1*
G04 #@! TO.N,+3V3*
X143000000Y-82200000D03*
D16*
G04 #@! TO.P,SW2,3*
G04 #@! TO.N,/CP2102N-GQFN28/5V*
X139000000Y-82200000D03*
D15*
G04 #@! TO.P,SW2,2*
G04 #@! TO.N,/VCC*
X141000000Y-82200000D03*
G04 #@! TD*
G04 #@! TO.P,U2,1*
G04 #@! TO.N,Net-(U2-Pad1)*
G04 #@! TA.AperFunction,SMDPad,CuDef*
G36*
G01*
X128650000Y-87062500D02*
X128650000Y-86937500D01*
G75*
G02*
X128712500Y-86875000I62500J0D01*
G01*
X129387500Y-86875000D01*
G75*
G02*
X129450000Y-86937500I0J-62500D01*
G01*
X129450000Y-87062500D01*
G75*
G02*
X129387500Y-87125000I-62500J0D01*
G01*
X128712500Y-87125000D01*
G75*
G02*
X128650000Y-87062500I0J62500D01*
G01*
G37*
G04 #@! TD.AperFunction*
G04 #@! TO.P,U2,2*
G04 #@! TO.N,Net-(U2-Pad2)*
G04 #@! TA.AperFunction,SMDPad,CuDef*
G36*
G01*
X128650000Y-87562500D02*
X128650000Y-87437500D01*
G75*
G02*
X128712500Y-87375000I62500J0D01*
G01*
X129387500Y-87375000D01*
G75*
G02*
X129450000Y-87437500I0J-62500D01*
G01*
X129450000Y-87562500D01*
G75*
G02*
X129387500Y-87625000I-62500J0D01*
G01*
X128712500Y-87625000D01*
G75*
G02*
X128650000Y-87562500I0J62500D01*
G01*
G37*
G04 #@! TD.AperFunction*
G04 #@! TO.P,U2,3*
G04 #@! TO.N,GND*
G04 #@! TA.AperFunction,SMDPad,CuDef*
G36*
G01*
X128650000Y-88062500D02*
X128650000Y-87937500D01*
G75*
G02*
X128712500Y-87875000I62500J0D01*
G01*
X129387500Y-87875000D01*
G75*
G02*
X129450000Y-87937500I0J-62500D01*
G01*
X129450000Y-88062500D01*
G75*
G02*
X129387500Y-88125000I-62500J0D01*
G01*
X128712500Y-88125000D01*
G75*
G02*
X128650000Y-88062500I0J62500D01*
G01*
G37*
G04 #@! TD.AperFunction*
G04 #@! TO.P,U2,4*
G04 #@! TO.N,/CP2102N-GQFN28/D+*
G04 #@! TA.AperFunction,SMDPad,CuDef*
G36*
G01*
X128650000Y-88562500D02*
X128650000Y-88437500D01*
G75*
G02*
X128712500Y-88375000I62500J0D01*
G01*
X129387500Y-88375000D01*
G75*
G02*
X129450000Y-88437500I0J-62500D01*
G01*
X129450000Y-88562500D01*
G75*
G02*
X129387500Y-88625000I-62500J0D01*
G01*
X128712500Y-88625000D01*
G75*
G02*
X128650000Y-88562500I0J62500D01*
G01*
G37*
G04 #@! TD.AperFunction*
G04 #@! TO.P,U2,5*
G04 #@! TO.N,/CP2102N-GQFN28/D-*
G04 #@! TA.AperFunction,SMDPad,CuDef*
G36*
G01*
X128650000Y-89062500D02*
X128650000Y-88937500D01*
G75*
G02*
X128712500Y-88875000I62500J0D01*
G01*
X129387500Y-88875000D01*
G75*
G02*
X129450000Y-88937500I0J-62500D01*
G01*
X129450000Y-89062500D01*
G75*
G02*
X129387500Y-89125000I-62500J0D01*
G01*
X128712500Y-89125000D01*
G75*
G02*
X128650000Y-89062500I0J62500D01*
G01*
G37*
G04 #@! TD.AperFunction*
G04 #@! TO.P,U2,6*
G04 #@! TO.N,/CP2102N-GQFN28/VDD*
G04 #@! TA.AperFunction,SMDPad,CuDef*
G36*
G01*
X128650000Y-89562500D02*
X128650000Y-89437500D01*
G75*
G02*
X128712500Y-89375000I62500J0D01*
G01*
X129387500Y-89375000D01*
G75*
G02*
X129450000Y-89437500I0J-62500D01*
G01*
X129450000Y-89562500D01*
G75*
G02*
X129387500Y-89625000I-62500J0D01*
G01*
X128712500Y-89625000D01*
G75*
G02*
X128650000Y-89562500I0J62500D01*
G01*
G37*
G04 #@! TD.AperFunction*
G04 #@! TO.P,U2,7*
G04 #@! TO.N,Net-(C4-Pad1)*
G04 #@! TA.AperFunction,SMDPad,CuDef*
G36*
G01*
X128650000Y-90062500D02*
X128650000Y-89937500D01*
G75*
G02*
X128712500Y-89875000I62500J0D01*
G01*
X129387500Y-89875000D01*
G75*
G02*
X129450000Y-89937500I0J-62500D01*
G01*
X129450000Y-90062500D01*
G75*
G02*
X129387500Y-90125000I-62500J0D01*
G01*
X128712500Y-90125000D01*
G75*
G02*
X128650000Y-90062500I0J62500D01*
G01*
G37*
G04 #@! TD.AperFunction*
G04 #@! TO.P,U2,8*
G04 #@! TO.N,Net-(R5-Pad1)*
G04 #@! TA.AperFunction,SMDPad,CuDef*
G36*
G01*
X129875000Y-91287500D02*
X129875000Y-90612500D01*
G75*
G02*
X129937500Y-90550000I62500J0D01*
G01*
X130062500Y-90550000D01*
G75*
G02*
X130125000Y-90612500I0J-62500D01*
G01*
X130125000Y-91287500D01*
G75*
G02*
X130062500Y-91350000I-62500J0D01*
G01*
X129937500Y-91350000D01*
G75*
G02*
X129875000Y-91287500I0J62500D01*
G01*
G37*
G04 #@! TD.AperFunction*
G04 #@! TO.P,U2,9*
G04 #@! TO.N,Net-(U2-Pad9)*
G04 #@! TA.AperFunction,SMDPad,CuDef*
G36*
G01*
X130375000Y-91287500D02*
X130375000Y-90612500D01*
G75*
G02*
X130437500Y-90550000I62500J0D01*
G01*
X130562500Y-90550000D01*
G75*
G02*
X130625000Y-90612500I0J-62500D01*
G01*
X130625000Y-91287500D01*
G75*
G02*
X130562500Y-91350000I-62500J0D01*
G01*
X130437500Y-91350000D01*
G75*
G02*
X130375000Y-91287500I0J62500D01*
G01*
G37*
G04 #@! TD.AperFunction*
G04 #@! TO.P,U2,10*
G04 #@! TO.N,Net-(U2-Pad10)*
G04 #@! TA.AperFunction,SMDPad,CuDef*
G36*
G01*
X130875000Y-91287500D02*
X130875000Y-90612500D01*
G75*
G02*
X130937500Y-90550000I62500J0D01*
G01*
X131062500Y-90550000D01*
G75*
G02*
X131125000Y-90612500I0J-62500D01*
G01*
X131125000Y-91287500D01*
G75*
G02*
X131062500Y-91350000I-62500J0D01*
G01*
X130937500Y-91350000D01*
G75*
G02*
X130875000Y-91287500I0J62500D01*
G01*
G37*
G04 #@! TD.AperFunction*
G04 #@! TO.P,U2,11*
G04 #@! TO.N,Net-(U2-Pad11)*
G04 #@! TA.AperFunction,SMDPad,CuDef*
G36*
G01*
X131375000Y-91287500D02*
X131375000Y-90612500D01*
G75*
G02*
X131437500Y-90550000I62500J0D01*
G01*
X131562500Y-90550000D01*
G75*
G02*
X131625000Y-90612500I0J-62500D01*
G01*
X131625000Y-91287500D01*
G75*
G02*
X131562500Y-91350000I-62500J0D01*
G01*
X131437500Y-91350000D01*
G75*
G02*
X131375000Y-91287500I0J62500D01*
G01*
G37*
G04 #@! TD.AperFunction*
G04 #@! TO.P,U2,12*
G04 #@! TO.N,Net-(U2-Pad12)*
G04 #@! TA.AperFunction,SMDPad,CuDef*
G36*
G01*
X131875000Y-91287500D02*
X131875000Y-90612500D01*
G75*
G02*
X131937500Y-90550000I62500J0D01*
G01*
X132062500Y-90550000D01*
G75*
G02*
X132125000Y-90612500I0J-62500D01*
G01*
X132125000Y-91287500D01*
G75*
G02*
X132062500Y-91350000I-62500J0D01*
G01*
X131937500Y-91350000D01*
G75*
G02*
X131875000Y-91287500I0J62500D01*
G01*
G37*
G04 #@! TD.AperFunction*
G04 #@! TO.P,U2,13*
G04 #@! TO.N,Net-(U2-Pad13)*
G04 #@! TA.AperFunction,SMDPad,CuDef*
G36*
G01*
X132375000Y-91287500D02*
X132375000Y-90612500D01*
G75*
G02*
X132437500Y-90550000I62500J0D01*
G01*
X132562500Y-90550000D01*
G75*
G02*
X132625000Y-90612500I0J-62500D01*
G01*
X132625000Y-91287500D01*
G75*
G02*
X132562500Y-91350000I-62500J0D01*
G01*
X132437500Y-91350000D01*
G75*
G02*
X132375000Y-91287500I0J62500D01*
G01*
G37*
G04 #@! TD.AperFunction*
G04 #@! TO.P,U2,14*
G04 #@! TO.N,Net-(U2-Pad14)*
G04 #@! TA.AperFunction,SMDPad,CuDef*
G36*
G01*
X132875000Y-91287500D02*
X132875000Y-90612500D01*
G75*
G02*
X132937500Y-90550000I62500J0D01*
G01*
X133062500Y-90550000D01*
G75*
G02*
X133125000Y-90612500I0J-62500D01*
G01*
X133125000Y-91287500D01*
G75*
G02*
X133062500Y-91350000I-62500J0D01*
G01*
X132937500Y-91350000D01*
G75*
G02*
X132875000Y-91287500I0J62500D01*
G01*
G37*
G04 #@! TD.AperFunction*
G04 #@! TO.P,U2,15*
G04 #@! TO.N,Net-(U2-Pad15)*
G04 #@! TA.AperFunction,SMDPad,CuDef*
G36*
G01*
X133550000Y-90062500D02*
X133550000Y-89937500D01*
G75*
G02*
X133612500Y-89875000I62500J0D01*
G01*
X134287500Y-89875000D01*
G75*
G02*
X134350000Y-89937500I0J-62500D01*
G01*
X134350000Y-90062500D01*
G75*
G02*
X134287500Y-90125000I-62500J0D01*
G01*
X133612500Y-90125000D01*
G75*
G02*
X133550000Y-90062500I0J62500D01*
G01*
G37*
G04 #@! TD.AperFunction*
G04 #@! TO.P,U2,16*
G04 #@! TO.N,Net-(U2-Pad16)*
G04 #@! TA.AperFunction,SMDPad,CuDef*
G36*
G01*
X133550000Y-89562500D02*
X133550000Y-89437500D01*
G75*
G02*
X133612500Y-89375000I62500J0D01*
G01*
X134287500Y-89375000D01*
G75*
G02*
X134350000Y-89437500I0J-62500D01*
G01*
X134350000Y-89562500D01*
G75*
G02*
X134287500Y-89625000I-62500J0D01*
G01*
X133612500Y-89625000D01*
G75*
G02*
X133550000Y-89562500I0J62500D01*
G01*
G37*
G04 #@! TD.AperFunction*
G04 #@! TO.P,U2,17*
G04 #@! TO.N,Net-(U2-Pad17)*
G04 #@! TA.AperFunction,SMDPad,CuDef*
G36*
G01*
X133550000Y-89062500D02*
X133550000Y-88937500D01*
G75*
G02*
X133612500Y-88875000I62500J0D01*
G01*
X134287500Y-88875000D01*
G75*
G02*
X134350000Y-88937500I0J-62500D01*
G01*
X134350000Y-89062500D01*
G75*
G02*
X134287500Y-89125000I-62500J0D01*
G01*
X133612500Y-89125000D01*
G75*
G02*
X133550000Y-89062500I0J62500D01*
G01*
G37*
G04 #@! TD.AperFunction*
G04 #@! TO.P,U2,18*
G04 #@! TO.N,Net-(U2-Pad18)*
G04 #@! TA.AperFunction,SMDPad,CuDef*
G36*
G01*
X133550000Y-88562500D02*
X133550000Y-88437500D01*
G75*
G02*
X133612500Y-88375000I62500J0D01*
G01*
X134287500Y-88375000D01*
G75*
G02*
X134350000Y-88437500I0J-62500D01*
G01*
X134350000Y-88562500D01*
G75*
G02*
X134287500Y-88625000I-62500J0D01*
G01*
X133612500Y-88625000D01*
G75*
G02*
X133550000Y-88562500I0J62500D01*
G01*
G37*
G04 #@! TD.AperFunction*
G04 #@! TO.P,U2,19*
G04 #@! TO.N,Net-(U2-Pad19)*
G04 #@! TA.AperFunction,SMDPad,CuDef*
G36*
G01*
X133550000Y-88062500D02*
X133550000Y-87937500D01*
G75*
G02*
X133612500Y-87875000I62500J0D01*
G01*
X134287500Y-87875000D01*
G75*
G02*
X134350000Y-87937500I0J-62500D01*
G01*
X134350000Y-88062500D01*
G75*
G02*
X134287500Y-88125000I-62500J0D01*
G01*
X133612500Y-88125000D01*
G75*
G02*
X133550000Y-88062500I0J62500D01*
G01*
G37*
G04 #@! TD.AperFunction*
G04 #@! TO.P,U2,20*
G04 #@! TO.N,Net-(U2-Pad20)*
G04 #@! TA.AperFunction,SMDPad,CuDef*
G36*
G01*
X133550000Y-87562500D02*
X133550000Y-87437500D01*
G75*
G02*
X133612500Y-87375000I62500J0D01*
G01*
X134287500Y-87375000D01*
G75*
G02*
X134350000Y-87437500I0J-62500D01*
G01*
X134350000Y-87562500D01*
G75*
G02*
X134287500Y-87625000I-62500J0D01*
G01*
X133612500Y-87625000D01*
G75*
G02*
X133550000Y-87562500I0J62500D01*
G01*
G37*
G04 #@! TD.AperFunction*
G04 #@! TO.P,U2,21*
G04 #@! TO.N,Net-(U2-Pad21)*
G04 #@! TA.AperFunction,SMDPad,CuDef*
G36*
G01*
X133550000Y-87062500D02*
X133550000Y-86937500D01*
G75*
G02*
X133612500Y-86875000I62500J0D01*
G01*
X134287500Y-86875000D01*
G75*
G02*
X134350000Y-86937500I0J-62500D01*
G01*
X134350000Y-87062500D01*
G75*
G02*
X134287500Y-87125000I-62500J0D01*
G01*
X133612500Y-87125000D01*
G75*
G02*
X133550000Y-87062500I0J62500D01*
G01*
G37*
G04 #@! TD.AperFunction*
G04 #@! TO.P,U2,22*
G04 #@! TO.N,Net-(U2-Pad22)*
G04 #@! TA.AperFunction,SMDPad,CuDef*
G36*
G01*
X132875000Y-86387500D02*
X132875000Y-85712500D01*
G75*
G02*
X132937500Y-85650000I62500J0D01*
G01*
X133062500Y-85650000D01*
G75*
G02*
X133125000Y-85712500I0J-62500D01*
G01*
X133125000Y-86387500D01*
G75*
G02*
X133062500Y-86450000I-62500J0D01*
G01*
X132937500Y-86450000D01*
G75*
G02*
X132875000Y-86387500I0J62500D01*
G01*
G37*
G04 #@! TD.AperFunction*
G04 #@! TO.P,U2,23*
G04 #@! TO.N,/CP2102N-GQFN28/CTS*
G04 #@! TA.AperFunction,SMDPad,CuDef*
G36*
G01*
X132375000Y-86387500D02*
X132375000Y-85712500D01*
G75*
G02*
X132437500Y-85650000I62500J0D01*
G01*
X132562500Y-85650000D01*
G75*
G02*
X132625000Y-85712500I0J-62500D01*
G01*
X132625000Y-86387500D01*
G75*
G02*
X132562500Y-86450000I-62500J0D01*
G01*
X132437500Y-86450000D01*
G75*
G02*
X132375000Y-86387500I0J62500D01*
G01*
G37*
G04 #@! TD.AperFunction*
G04 #@! TO.P,U2,24*
G04 #@! TO.N,/CP2102N-GQFN28/RST*
G04 #@! TA.AperFunction,SMDPad,CuDef*
G36*
G01*
X131875000Y-86387500D02*
X131875000Y-85712500D01*
G75*
G02*
X131937500Y-85650000I62500J0D01*
G01*
X132062500Y-85650000D01*
G75*
G02*
X132125000Y-85712500I0J-62500D01*
G01*
X132125000Y-86387500D01*
G75*
G02*
X132062500Y-86450000I-62500J0D01*
G01*
X131937500Y-86450000D01*
G75*
G02*
X131875000Y-86387500I0J62500D01*
G01*
G37*
G04 #@! TD.AperFunction*
G04 #@! TO.P,U2,25*
G04 #@! TO.N,/RX*
G04 #@! TA.AperFunction,SMDPad,CuDef*
G36*
G01*
X131375000Y-86387500D02*
X131375000Y-85712500D01*
G75*
G02*
X131437500Y-85650000I62500J0D01*
G01*
X131562500Y-85650000D01*
G75*
G02*
X131625000Y-85712500I0J-62500D01*
G01*
X131625000Y-86387500D01*
G75*
G02*
X131562500Y-86450000I-62500J0D01*
G01*
X131437500Y-86450000D01*
G75*
G02*
X131375000Y-86387500I0J62500D01*
G01*
G37*
G04 #@! TD.AperFunction*
G04 #@! TO.P,U2,26*
G04 #@! TO.N,/TX*
G04 #@! TA.AperFunction,SMDPad,CuDef*
G36*
G01*
X130875000Y-86387500D02*
X130875000Y-85712500D01*
G75*
G02*
X130937500Y-85650000I62500J0D01*
G01*
X131062500Y-85650000D01*
G75*
G02*
X131125000Y-85712500I0J-62500D01*
G01*
X131125000Y-86387500D01*
G75*
G02*
X131062500Y-86450000I-62500J0D01*
G01*
X130937500Y-86450000D01*
G75*
G02*
X130875000Y-86387500I0J62500D01*
G01*
G37*
G04 #@! TD.AperFunction*
G04 #@! TO.P,U2,27*
G04 #@! TO.N,Net-(U2-Pad27)*
G04 #@! TA.AperFunction,SMDPad,CuDef*
G36*
G01*
X130375000Y-86387500D02*
X130375000Y-85712500D01*
G75*
G02*
X130437500Y-85650000I62500J0D01*
G01*
X130562500Y-85650000D01*
G75*
G02*
X130625000Y-85712500I0J-62500D01*
G01*
X130625000Y-86387500D01*
G75*
G02*
X130562500Y-86450000I-62500J0D01*
G01*
X130437500Y-86450000D01*
G75*
G02*
X130375000Y-86387500I0J62500D01*
G01*
G37*
G04 #@! TD.AperFunction*
G04 #@! TO.P,U2,28*
G04 #@! TO.N,/CP2102N-GQFN28/DTR*
G04 #@! TA.AperFunction,SMDPad,CuDef*
G36*
G01*
X129875000Y-86387500D02*
X129875000Y-85712500D01*
G75*
G02*
X129937500Y-85650000I62500J0D01*
G01*
X130062500Y-85650000D01*
G75*
G02*
X130125000Y-85712500I0J-62500D01*
G01*
X130125000Y-86387500D01*
G75*
G02*
X130062500Y-86450000I-62500J0D01*
G01*
X129937500Y-86450000D01*
G75*
G02*
X129875000Y-86387500I0J62500D01*
G01*
G37*
G04 #@! TD.AperFunction*
D17*
G04 #@! TO.P,U2,29*
G04 #@! TO.N,GND*
X131500000Y-88500000D03*
G04 #@! TD*
G04 #@! TO.P,F2,1*
G04 #@! TO.N,/CP2102N-GQFN28/VBUS*
G04 #@! TA.AperFunction,SMDPad,CuDef*
G36*
G01*
X125775000Y-82275000D02*
X127025000Y-82275000D01*
G75*
G02*
X127275000Y-82525000I0J-250000D01*
G01*
X127275000Y-83275000D01*
G75*
G02*
X127025000Y-83525000I-250000J0D01*
G01*
X125775000Y-83525000D01*
G75*
G02*
X125525000Y-83275000I0J250000D01*
G01*
X125525000Y-82525000D01*
G75*
G02*
X125775000Y-82275000I250000J0D01*
G01*
G37*
G04 #@! TD.AperFunction*
G04 #@! TO.P,F2,2*
G04 #@! TO.N,Net-(C4-Pad1)*
G04 #@! TA.AperFunction,SMDPad,CuDef*
G36*
G01*
X125775000Y-85075000D02*
X127025000Y-85075000D01*
G75*
G02*
X127275000Y-85325000I0J-250000D01*
G01*
X127275000Y-86075000D01*
G75*
G02*
X127025000Y-86325000I-250000J0D01*
G01*
X125775000Y-86325000D01*
G75*
G02*
X125525000Y-86075000I0J250000D01*
G01*
X125525000Y-85325000D01*
G75*
G02*
X125775000Y-85075000I250000J0D01*
G01*
G37*
G04 #@! TD.AperFunction*
G04 #@! TD*
D18*
G04 #@! TO.N,GND*
X123000000Y-83600000D03*
X117500000Y-83600000D03*
X117400000Y-92400000D03*
X126100000Y-86900000D03*
X123000000Y-92500000D03*
X136400000Y-85300000D03*
X141550000Y-85250000D03*
X129800000Y-84650000D03*
X126300000Y-84400000D03*
X127500000Y-94200000D03*
X133200000Y-92600000D03*
X145100000Y-85400000D03*
X131500000Y-88124998D03*
X125800000Y-89750000D03*
X146600000Y-90350000D03*
G04 #@! TO.N,/CP2102N-GQFN28/DTR*
X139700000Y-87000000D03*
X136800000Y-86800000D03*
X128933470Y-85824043D03*
G04 #@! TO.N,Net-(C4-Pad1)*
X127800000Y-85700000D03*
X127500000Y-92625000D03*
G04 #@! TO.N,Net-(D1-Pad2)*
X145200000Y-88800000D03*
G04 #@! TO.N,/CP2102N-GQFN28/D+*
X125187347Y-88112653D03*
X127000000Y-87700000D03*
G04 #@! TO.N,/RX*
X134900000Y-84200000D03*
G04 #@! TO.N,/TX*
X135700000Y-83400000D03*
G04 #@! TO.N,/VCC*
X146600000Y-85200000D03*
G04 #@! TO.N,/CP2102N-GQFN28/RST*
X143500000Y-88800000D03*
G04 #@! TO.N,Net-(Q1-Pad1)*
X141500000Y-90100000D03*
G04 #@! TO.N,Net-(Q2-Pad1)*
X135850000Y-88800000D03*
G04 #@! TO.N,+3V3*
X126987010Y-81112990D03*
G04 #@! TD*
D19*
G04 #@! TO.N,GND*
X127500000Y-90975000D02*
X123025000Y-90975000D01*
X123000000Y-89700000D02*
X123000000Y-91000000D01*
X123025000Y-90975000D02*
X123000000Y-91000000D01*
X123000000Y-91000000D02*
X123000000Y-92500000D01*
X129100000Y-94200000D02*
X127500000Y-94200000D01*
X128201978Y-86900000D02*
X126100000Y-86900000D01*
X128551988Y-86549990D02*
X128201978Y-86900000D01*
X131500000Y-88500000D02*
X129549990Y-86549990D01*
X129549990Y-86549990D02*
X128551988Y-86549990D01*
X123000000Y-91000000D02*
X123000000Y-91000000D01*
X123000000Y-92500000D02*
X123000000Y-92500000D01*
X129500000Y-85000000D02*
X128900000Y-84400000D01*
X128900000Y-84400000D02*
X126300000Y-84400000D01*
X127500000Y-94200000D02*
X127500000Y-94200000D01*
X131000000Y-88000000D02*
X131500000Y-88500000D01*
X129050000Y-88000000D02*
X131000000Y-88000000D01*
X145200000Y-87200000D02*
X145800000Y-87200000D01*
X145800000Y-87200000D02*
X146600000Y-88000000D01*
X146600000Y-88000000D02*
X146600000Y-90350000D01*
G04 #@! TO.N,/CP2102N-GQFN28/DTR*
X130000000Y-86050000D02*
X129159427Y-86050000D01*
X129159427Y-86050000D02*
X128933470Y-85824043D01*
G04 #@! TO.N,Net-(C3-Pad1)*
X142900000Y-92800000D02*
X142900000Y-93700000D01*
X139700000Y-88500000D02*
X139700000Y-90700000D01*
X141900000Y-91800000D02*
X142900000Y-92800000D01*
X140800000Y-91800000D02*
X141900000Y-91800000D01*
X139700000Y-90700000D02*
X140800000Y-91800000D01*
G04 #@! TO.N,Net-(C4-Pad1)*
X127500000Y-92625000D02*
X129100000Y-92625000D01*
X129100000Y-90050000D02*
X129050000Y-90000000D01*
X129100000Y-92625000D02*
X129100000Y-90050000D01*
X127000000Y-85700000D02*
X127800000Y-85700000D01*
X129100000Y-92625000D02*
X129125000Y-92625000D01*
X129937490Y-94681484D02*
X130256016Y-95000010D01*
X130256016Y-95000010D02*
X131474990Y-95000010D01*
X129937490Y-92987490D02*
X129937490Y-94681484D01*
X129575000Y-92625000D02*
X129937490Y-92987490D01*
X131474990Y-95000010D02*
X132275000Y-94200000D01*
X129100000Y-92625000D02*
X129575000Y-92625000D01*
G04 #@! TO.N,/CP2102N-GQFN28/VDD*
X127600000Y-89500000D02*
X127500000Y-89400000D01*
X129050000Y-89500000D02*
X127600000Y-89500000D01*
G04 #@! TO.N,+3V3*
X128525000Y-82687500D02*
X128512500Y-82700000D01*
X128525000Y-81100000D02*
X128525000Y-82687500D01*
G04 #@! TO.N,Net-(D3-Pad1)*
X130100000Y-81100000D02*
X131625000Y-81100000D01*
G04 #@! TO.N,Net-(D4-Pad1)*
X130187500Y-82600000D02*
X130087500Y-82700000D01*
X131625000Y-82600000D02*
X130187500Y-82600000D01*
G04 #@! TO.N,/CP2102N-GQFN28/VBUS*
X123000000Y-86500000D02*
X123500000Y-86500000D01*
X123500000Y-86500000D02*
X125100000Y-84900000D01*
X125100000Y-84200000D02*
X126400000Y-82900000D01*
X125100000Y-84900000D02*
X125100000Y-84200000D01*
G04 #@! TO.N,/CP2102N-GQFN28/D-*
X123000000Y-87300000D02*
X125400000Y-87300000D01*
X125400000Y-87300000D02*
X126600000Y-88500000D01*
X126600000Y-88500000D02*
X127900000Y-88500000D01*
X128400000Y-89000000D02*
X129050000Y-89000000D01*
X127900000Y-88500000D02*
X128400000Y-89000000D01*
G04 #@! TO.N,/CP2102N-GQFN28/D+*
X123000000Y-88100000D02*
X125174694Y-88100000D01*
X125174694Y-88100000D02*
X125187347Y-88112653D01*
X127000000Y-87700000D02*
X127736410Y-87700000D01*
X128536410Y-88500000D02*
X129050000Y-88500000D01*
X127736410Y-87700000D02*
X128536410Y-88500000D01*
G04 #@! TO.N,/DTR*
X152800000Y-82700000D02*
X151700000Y-81600000D01*
X151700000Y-81600000D02*
X150900000Y-81600000D01*
X140900000Y-93700000D02*
X140900000Y-94300000D01*
X150000000Y-93000000D02*
X151399002Y-93000000D01*
X152800000Y-91599002D02*
X152800000Y-82700000D01*
X151399002Y-93000000D02*
X152800000Y-91599002D01*
X141387010Y-94787010D02*
X148212990Y-94787010D01*
X140900000Y-94300000D02*
X141387010Y-94787010D01*
X148212990Y-94787010D02*
X150000000Y-93000000D01*
G04 #@! TO.N,/RX*
X131500000Y-86050000D02*
X131500000Y-85200000D01*
X131500000Y-85200000D02*
X132500000Y-84200000D01*
X132500000Y-84200000D02*
X134900000Y-84200000D01*
X135973002Y-84200000D02*
X134900000Y-84200000D01*
X136425001Y-83051999D02*
X136425001Y-83748001D01*
X135973002Y-82600000D02*
X136425001Y-83051999D01*
X136425001Y-83748001D02*
X135973002Y-84200000D01*
X133200000Y-82600000D02*
X135973002Y-82600000D01*
G04 #@! TO.N,/TX*
X131000000Y-86050000D02*
X131000000Y-84500000D01*
X131000000Y-84500000D02*
X132100000Y-83400000D01*
X132100000Y-83400000D02*
X135700000Y-83400000D01*
X132437490Y-81862510D02*
X133200000Y-81100000D01*
X132437490Y-83081484D02*
X132437490Y-81862510D01*
X132118974Y-83400000D02*
X132437490Y-83081484D01*
X132100000Y-83400000D02*
X132118974Y-83400000D01*
G04 #@! TO.N,/VCC*
X141000000Y-82200000D02*
X141000000Y-82700000D01*
X141000000Y-82700000D02*
X142200000Y-83900000D01*
X142200000Y-83900000D02*
X146000000Y-83900000D01*
X146000000Y-83900000D02*
X146600000Y-84500000D01*
X149120000Y-89220000D02*
X150900000Y-89220000D01*
X146600000Y-86700000D02*
X149120000Y-89220000D01*
X146600000Y-84500000D02*
X146600000Y-85200000D01*
X146600000Y-85200000D02*
X146600000Y-86700000D01*
G04 #@! TO.N,/EN*
X142500000Y-86800000D02*
X142500000Y-90100000D01*
X144160000Y-91760000D02*
X150900000Y-91760000D01*
X142500000Y-90100000D02*
X144160000Y-91760000D01*
G04 #@! TO.N,/CP2102N-GQFN28/RST*
X143150000Y-85950000D02*
X143450000Y-86250000D01*
X137806005Y-87575001D02*
X139431006Y-85950000D01*
X143450000Y-86250000D02*
X143450000Y-88800000D01*
X132000000Y-85601978D02*
X132676977Y-84925001D01*
X132000000Y-86050000D02*
X132000000Y-85601978D01*
X139431006Y-85950000D02*
X143150000Y-85950000D01*
X132676977Y-84925001D02*
X133489999Y-84925001D01*
X136139999Y-87575001D02*
X137806005Y-87575001D01*
X133489999Y-84925001D02*
X136139999Y-87575001D01*
G04 #@! TO.N,Net-(Q1-Pad1)*
X141500000Y-88850000D02*
X141550000Y-88800000D01*
X141500000Y-90100000D02*
X141500000Y-88850000D01*
G04 #@! TO.N,Net-(Q2-Pad2)*
X137750000Y-92550000D02*
X138900000Y-93700000D01*
X137750000Y-88800000D02*
X137750000Y-92550000D01*
G04 #@! TO.N,Net-(R5-Pad1)*
X130700000Y-92600000D02*
X130000000Y-91900000D01*
X130000000Y-91900000D02*
X130000000Y-90950000D01*
X130700000Y-92600000D02*
X130700000Y-94200000D01*
G04 #@! TO.N,+3V3*
X128525000Y-81100000D02*
X127000000Y-81100000D01*
X127000000Y-81100000D02*
X126987010Y-81112990D01*
G04 #@! TD*
D20*
G04 #@! TO.N,GND*
G36*
X125952010Y-81011051D02*
G01*
X125952010Y-81214929D01*
X125991784Y-81414888D01*
X126069805Y-81603246D01*
X126092311Y-81636928D01*
X125775000Y-81636928D01*
X125601746Y-81653992D01*
X125435150Y-81704528D01*
X125281614Y-81786595D01*
X125147038Y-81897038D01*
X125036595Y-82031614D01*
X124954528Y-82185150D01*
X124903992Y-82351746D01*
X124886928Y-82525000D01*
X124886928Y-82688384D01*
X124875812Y-82575518D01*
X124839502Y-82455820D01*
X124780537Y-82345506D01*
X124701185Y-82248815D01*
X124604494Y-82169463D01*
X124494180Y-82110498D01*
X124374482Y-82074188D01*
X124250000Y-82061928D01*
X123285750Y-82065000D01*
X123127000Y-82223750D01*
X123127000Y-83573000D01*
X123147000Y-83573000D01*
X123147000Y-83827000D01*
X123127000Y-83827000D01*
X123127000Y-85176250D01*
X123285750Y-85335000D01*
X123589232Y-85335967D01*
X123313271Y-85611928D01*
X121750000Y-85611928D01*
X121625518Y-85624188D01*
X121505820Y-85660498D01*
X121463153Y-85683304D01*
X121443304Y-85583517D01*
X121361515Y-85386060D01*
X121242775Y-85208353D01*
X121091647Y-85057225D01*
X120913940Y-84938485D01*
X120716483Y-84856696D01*
X120506863Y-84815000D01*
X120293137Y-84815000D01*
X120083517Y-84856696D01*
X119886060Y-84938485D01*
X119708353Y-85057225D01*
X119557225Y-85208353D01*
X119438485Y-85386060D01*
X119356696Y-85583517D01*
X119315000Y-85793137D01*
X119315000Y-86006863D01*
X119356696Y-86216483D01*
X119438485Y-86413940D01*
X119557225Y-86591647D01*
X119708353Y-86742775D01*
X119886060Y-86861515D01*
X120083517Y-86943304D01*
X120293137Y-86985000D01*
X120506863Y-86985000D01*
X120716483Y-86943304D01*
X120913940Y-86861515D01*
X121091647Y-86742775D01*
X121111928Y-86722494D01*
X121111928Y-86750000D01*
X121124188Y-86874482D01*
X121131929Y-86900000D01*
X121124188Y-86925518D01*
X121111928Y-87050000D01*
X121111928Y-87550000D01*
X121124188Y-87674482D01*
X121131929Y-87700000D01*
X121124188Y-87725518D01*
X121111928Y-87850000D01*
X121111928Y-88350000D01*
X121124188Y-88474482D01*
X121131929Y-88500000D01*
X121124188Y-88525518D01*
X121111928Y-88650000D01*
X121111928Y-89150000D01*
X121124188Y-89274482D01*
X121131725Y-89299329D01*
X121125481Y-89319187D01*
X121115000Y-89418250D01*
X121269748Y-89572998D01*
X121207420Y-89572998D01*
X121091647Y-89457225D01*
X120913940Y-89338485D01*
X120716483Y-89256696D01*
X120506863Y-89215000D01*
X120293137Y-89215000D01*
X120083517Y-89256696D01*
X119886060Y-89338485D01*
X119708353Y-89457225D01*
X119557225Y-89608353D01*
X119438485Y-89786060D01*
X119356696Y-89983517D01*
X119315000Y-90193137D01*
X119315000Y-90406863D01*
X119356696Y-90616483D01*
X119438485Y-90813940D01*
X119557225Y-90991647D01*
X119708353Y-91142775D01*
X119886060Y-91261515D01*
X120083517Y-91343304D01*
X120293137Y-91385000D01*
X120506863Y-91385000D01*
X120716483Y-91343304D01*
X120913940Y-91261515D01*
X121091647Y-91142775D01*
X121242775Y-90991647D01*
X121361515Y-90813940D01*
X121443304Y-90616483D01*
X121463176Y-90516582D01*
X121511803Y-90541944D01*
X121631862Y-90577040D01*
X121756462Y-90588039D01*
X122714250Y-90585000D01*
X122873000Y-90426250D01*
X122873000Y-89823000D01*
X123127000Y-89823000D01*
X123127000Y-90426250D01*
X123285750Y-90585000D01*
X124243538Y-90588039D01*
X124368138Y-90577040D01*
X124488197Y-90541944D01*
X124599103Y-90484100D01*
X124696593Y-90405731D01*
X124776920Y-90309848D01*
X124836999Y-90200137D01*
X124874519Y-90080813D01*
X124885000Y-89981750D01*
X124726250Y-89823000D01*
X123127000Y-89823000D01*
X122873000Y-89823000D01*
X122853000Y-89823000D01*
X122853000Y-89788072D01*
X124250000Y-89788072D01*
X124374482Y-89775812D01*
X124494180Y-89739502D01*
X124604494Y-89680537D01*
X124701185Y-89601185D01*
X124721033Y-89577000D01*
X124726250Y-89577000D01*
X124885000Y-89418250D01*
X124874519Y-89319187D01*
X124868275Y-89299329D01*
X124875812Y-89274482D01*
X124888072Y-89150000D01*
X124888072Y-89108401D01*
X125085408Y-89147653D01*
X125289286Y-89147653D01*
X125489245Y-89107879D01*
X125677603Y-89029858D01*
X125847121Y-88916590D01*
X125894455Y-88869256D01*
X126036200Y-89011002D01*
X126059999Y-89040001D01*
X126175724Y-89134974D01*
X126307753Y-89205546D01*
X126386928Y-89229563D01*
X126386928Y-89618750D01*
X126403392Y-89785908D01*
X126452150Y-89946642D01*
X126531329Y-90094775D01*
X126549100Y-90116430D01*
X126494463Y-90183006D01*
X126435498Y-90293320D01*
X126399188Y-90413018D01*
X126386928Y-90537500D01*
X126390000Y-90689250D01*
X126548750Y-90848000D01*
X127373000Y-90848000D01*
X127373000Y-90828000D01*
X127627000Y-90828000D01*
X127627000Y-90848000D01*
X127647000Y-90848000D01*
X127647000Y-91102000D01*
X127627000Y-91102000D01*
X127627000Y-91122000D01*
X127373000Y-91122000D01*
X127373000Y-91102000D01*
X126548750Y-91102000D01*
X126390000Y-91260750D01*
X126386928Y-91412500D01*
X126399188Y-91536982D01*
X126435498Y-91656680D01*
X126494463Y-91766994D01*
X126573815Y-91863685D01*
X126581058Y-91869629D01*
X126531329Y-91930225D01*
X126452150Y-92078358D01*
X126403392Y-92239092D01*
X126386928Y-92406250D01*
X126386928Y-92843750D01*
X126403392Y-93010908D01*
X126452150Y-93171642D01*
X126531329Y-93319775D01*
X126549100Y-93341430D01*
X126494463Y-93408006D01*
X126435498Y-93518320D01*
X126399188Y-93638018D01*
X126386928Y-93762500D01*
X126390000Y-93914250D01*
X126548750Y-94073000D01*
X127373000Y-94073000D01*
X127373000Y-94053000D01*
X127627000Y-94053000D01*
X127627000Y-94073000D01*
X128973000Y-94073000D01*
X128973000Y-94053000D01*
X129177490Y-94053000D01*
X129177491Y-94347000D01*
X128973000Y-94347000D01*
X128973000Y-94327000D01*
X127627000Y-94327000D01*
X127627000Y-94347000D01*
X127373000Y-94347000D01*
X127373000Y-94327000D01*
X126548750Y-94327000D01*
X126390000Y-94485750D01*
X126386928Y-94637500D01*
X126399188Y-94761982D01*
X126435498Y-94881680D01*
X126439945Y-94890000D01*
X116010000Y-94890000D01*
X116010000Y-94090770D01*
X116125518Y-94125812D01*
X116250000Y-94138072D01*
X117214250Y-94135000D01*
X117373000Y-93976250D01*
X117373000Y-92627000D01*
X117627000Y-92627000D01*
X117627000Y-93976250D01*
X117785750Y-94135000D01*
X118750000Y-94138072D01*
X118874482Y-94125812D01*
X118994180Y-94089502D01*
X119104494Y-94030537D01*
X119201185Y-93951185D01*
X119280537Y-93854494D01*
X119339502Y-93744180D01*
X119375812Y-93624482D01*
X119388072Y-93500000D01*
X121111928Y-93500000D01*
X121124188Y-93624482D01*
X121160498Y-93744180D01*
X121219463Y-93854494D01*
X121298815Y-93951185D01*
X121395506Y-94030537D01*
X121505820Y-94089502D01*
X121625518Y-94125812D01*
X121750000Y-94138072D01*
X122714250Y-94135000D01*
X122873000Y-93976250D01*
X122873000Y-92627000D01*
X123127000Y-92627000D01*
X123127000Y-93976250D01*
X123285750Y-94135000D01*
X124250000Y-94138072D01*
X124374482Y-94125812D01*
X124494180Y-94089502D01*
X124604494Y-94030537D01*
X124701185Y-93951185D01*
X124780537Y-93854494D01*
X124839502Y-93744180D01*
X124875812Y-93624482D01*
X124888072Y-93500000D01*
X124885000Y-92785750D01*
X124726250Y-92627000D01*
X123127000Y-92627000D01*
X122873000Y-92627000D01*
X121273750Y-92627000D01*
X121115000Y-92785750D01*
X121111928Y-93500000D01*
X119388072Y-93500000D01*
X119385000Y-92785750D01*
X119226250Y-92627000D01*
X117627000Y-92627000D01*
X117373000Y-92627000D01*
X117353000Y-92627000D01*
X117353000Y-92373000D01*
X117373000Y-92373000D01*
X117373000Y-91023750D01*
X117627000Y-91023750D01*
X117627000Y-92373000D01*
X119226250Y-92373000D01*
X119385000Y-92214250D01*
X119388072Y-91500000D01*
X121111928Y-91500000D01*
X121115000Y-92214250D01*
X121273750Y-92373000D01*
X122873000Y-92373000D01*
X122873000Y-91023750D01*
X123127000Y-91023750D01*
X123127000Y-92373000D01*
X124726250Y-92373000D01*
X124885000Y-92214250D01*
X124888072Y-91500000D01*
X124875812Y-91375518D01*
X124839502Y-91255820D01*
X124780537Y-91145506D01*
X124701185Y-91048815D01*
X124604494Y-90969463D01*
X124494180Y-90910498D01*
X124374482Y-90874188D01*
X124250000Y-90861928D01*
X123285750Y-90865000D01*
X123127000Y-91023750D01*
X122873000Y-91023750D01*
X122714250Y-90865000D01*
X121750000Y-90861928D01*
X121625518Y-90874188D01*
X121505820Y-90910498D01*
X121395506Y-90969463D01*
X121298815Y-91048815D01*
X121219463Y-91145506D01*
X121160498Y-91255820D01*
X121124188Y-91375518D01*
X121111928Y-91500000D01*
X119388072Y-91500000D01*
X119375812Y-91375518D01*
X119339502Y-91255820D01*
X119280537Y-91145506D01*
X119201185Y-91048815D01*
X119104494Y-90969463D01*
X118994180Y-90910498D01*
X118874482Y-90874188D01*
X118750000Y-90861928D01*
X117785750Y-90865000D01*
X117627000Y-91023750D01*
X117373000Y-91023750D01*
X117214250Y-90865000D01*
X116250000Y-90861928D01*
X116125518Y-90874188D01*
X116010000Y-90909230D01*
X116010000Y-85290770D01*
X116125518Y-85325812D01*
X116250000Y-85338072D01*
X117214250Y-85335000D01*
X117373000Y-85176250D01*
X117373000Y-83827000D01*
X117627000Y-83827000D01*
X117627000Y-85176250D01*
X117785750Y-85335000D01*
X118750000Y-85338072D01*
X118874482Y-85325812D01*
X118994180Y-85289502D01*
X119104494Y-85230537D01*
X119201185Y-85151185D01*
X119280537Y-85054494D01*
X119339502Y-84944180D01*
X119375812Y-84824482D01*
X119388072Y-84700000D01*
X121111928Y-84700000D01*
X121124188Y-84824482D01*
X121160498Y-84944180D01*
X121219463Y-85054494D01*
X121298815Y-85151185D01*
X121395506Y-85230537D01*
X121505820Y-85289502D01*
X121625518Y-85325812D01*
X121750000Y-85338072D01*
X122714250Y-85335000D01*
X122873000Y-85176250D01*
X122873000Y-83827000D01*
X121273750Y-83827000D01*
X121115000Y-83985750D01*
X121111928Y-84700000D01*
X119388072Y-84700000D01*
X119385000Y-83985750D01*
X119226250Y-83827000D01*
X117627000Y-83827000D01*
X117373000Y-83827000D01*
X117353000Y-83827000D01*
X117353000Y-83573000D01*
X117373000Y-83573000D01*
X117373000Y-82223750D01*
X117627000Y-82223750D01*
X117627000Y-83573000D01*
X119226250Y-83573000D01*
X119385000Y-83414250D01*
X119388072Y-82700000D01*
X121111928Y-82700000D01*
X121115000Y-83414250D01*
X121273750Y-83573000D01*
X122873000Y-83573000D01*
X122873000Y-82223750D01*
X122714250Y-82065000D01*
X121750000Y-82061928D01*
X121625518Y-82074188D01*
X121505820Y-82110498D01*
X121395506Y-82169463D01*
X121298815Y-82248815D01*
X121219463Y-82345506D01*
X121160498Y-82455820D01*
X121124188Y-82575518D01*
X121111928Y-82700000D01*
X119388072Y-82700000D01*
X119375812Y-82575518D01*
X119339502Y-82455820D01*
X119280537Y-82345506D01*
X119201185Y-82248815D01*
X119104494Y-82169463D01*
X118994180Y-82110498D01*
X118874482Y-82074188D01*
X118750000Y-82061928D01*
X117785750Y-82065000D01*
X117627000Y-82223750D01*
X117373000Y-82223750D01*
X117214250Y-82065000D01*
X116250000Y-82061928D01*
X116125518Y-82074188D01*
X116010000Y-82109230D01*
X116010000Y-81010000D01*
X125952219Y-81010000D01*
X125952010Y-81011051D01*
G37*
X125952010Y-81011051D02*
X125952010Y-81214929D01*
X125991784Y-81414888D01*
X126069805Y-81603246D01*
X126092311Y-81636928D01*
X125775000Y-81636928D01*
X125601746Y-81653992D01*
X125435150Y-81704528D01*
X125281614Y-81786595D01*
X125147038Y-81897038D01*
X125036595Y-82031614D01*
X124954528Y-82185150D01*
X124903992Y-82351746D01*
X124886928Y-82525000D01*
X124886928Y-82688384D01*
X124875812Y-82575518D01*
X124839502Y-82455820D01*
X124780537Y-82345506D01*
X124701185Y-82248815D01*
X124604494Y-82169463D01*
X124494180Y-82110498D01*
X124374482Y-82074188D01*
X124250000Y-82061928D01*
X123285750Y-82065000D01*
X123127000Y-82223750D01*
X123127000Y-83573000D01*
X123147000Y-83573000D01*
X123147000Y-83827000D01*
X123127000Y-83827000D01*
X123127000Y-85176250D01*
X123285750Y-85335000D01*
X123589232Y-85335967D01*
X123313271Y-85611928D01*
X121750000Y-85611928D01*
X121625518Y-85624188D01*
X121505820Y-85660498D01*
X121463153Y-85683304D01*
X121443304Y-85583517D01*
X121361515Y-85386060D01*
X121242775Y-85208353D01*
X121091647Y-85057225D01*
X120913940Y-84938485D01*
X120716483Y-84856696D01*
X120506863Y-84815000D01*
X120293137Y-84815000D01*
X120083517Y-84856696D01*
X119886060Y-84938485D01*
X119708353Y-85057225D01*
X119557225Y-85208353D01*
X119438485Y-85386060D01*
X119356696Y-85583517D01*
X119315000Y-85793137D01*
X119315000Y-86006863D01*
X119356696Y-86216483D01*
X119438485Y-86413940D01*
X119557225Y-86591647D01*
X119708353Y-86742775D01*
X119886060Y-86861515D01*
X120083517Y-86943304D01*
X120293137Y-86985000D01*
X120506863Y-86985000D01*
X120716483Y-86943304D01*
X120913940Y-86861515D01*
X121091647Y-86742775D01*
X121111928Y-86722494D01*
X121111928Y-86750000D01*
X121124188Y-86874482D01*
X121131929Y-86900000D01*
X121124188Y-86925518D01*
X121111928Y-87050000D01*
X121111928Y-87550000D01*
X121124188Y-87674482D01*
X121131929Y-87700000D01*
X121124188Y-87725518D01*
X121111928Y-87850000D01*
X121111928Y-88350000D01*
X121124188Y-88474482D01*
X121131929Y-88500000D01*
X121124188Y-88525518D01*
X121111928Y-88650000D01*
X121111928Y-89150000D01*
X121124188Y-89274482D01*
X121131725Y-89299329D01*
X121125481Y-89319187D01*
X121115000Y-89418250D01*
X121269748Y-89572998D01*
X121207420Y-89572998D01*
X121091647Y-89457225D01*
X120913940Y-89338485D01*
X120716483Y-89256696D01*
X120506863Y-89215000D01*
X120293137Y-89215000D01*
X120083517Y-89256696D01*
X119886060Y-89338485D01*
X119708353Y-89457225D01*
X119557225Y-89608353D01*
X119438485Y-89786060D01*
X119356696Y-89983517D01*
X119315000Y-90193137D01*
X119315000Y-90406863D01*
X119356696Y-90616483D01*
X119438485Y-90813940D01*
X119557225Y-90991647D01*
X119708353Y-91142775D01*
X119886060Y-91261515D01*
X120083517Y-91343304D01*
X120293137Y-91385000D01*
X120506863Y-91385000D01*
X120716483Y-91343304D01*
X120913940Y-91261515D01*
X121091647Y-91142775D01*
X121242775Y-90991647D01*
X121361515Y-90813940D01*
X121443304Y-90616483D01*
X121463176Y-90516582D01*
X121511803Y-90541944D01*
X121631862Y-90577040D01*
X121756462Y-90588039D01*
X122714250Y-90585000D01*
X122873000Y-90426250D01*
X122873000Y-89823000D01*
X123127000Y-89823000D01*
X123127000Y-90426250D01*
X123285750Y-90585000D01*
X124243538Y-90588039D01*
X124368138Y-90577040D01*
X124488197Y-90541944D01*
X124599103Y-90484100D01*
X124696593Y-90405731D01*
X124776920Y-90309848D01*
X124836999Y-90200137D01*
X124874519Y-90080813D01*
X124885000Y-89981750D01*
X124726250Y-89823000D01*
X123127000Y-89823000D01*
X122873000Y-89823000D01*
X122853000Y-89823000D01*
X122853000Y-89788072D01*
X124250000Y-89788072D01*
X124374482Y-89775812D01*
X124494180Y-89739502D01*
X124604494Y-89680537D01*
X124701185Y-89601185D01*
X124721033Y-89577000D01*
X124726250Y-89577000D01*
X124885000Y-89418250D01*
X124874519Y-89319187D01*
X124868275Y-89299329D01*
X124875812Y-89274482D01*
X124888072Y-89150000D01*
X124888072Y-89108401D01*
X125085408Y-89147653D01*
X125289286Y-89147653D01*
X125489245Y-89107879D01*
X125677603Y-89029858D01*
X125847121Y-88916590D01*
X125894455Y-88869256D01*
X126036200Y-89011002D01*
X126059999Y-89040001D01*
X126175724Y-89134974D01*
X126307753Y-89205546D01*
X126386928Y-89229563D01*
X126386928Y-89618750D01*
X126403392Y-89785908D01*
X126452150Y-89946642D01*
X126531329Y-90094775D01*
X126549100Y-90116430D01*
X126494463Y-90183006D01*
X126435498Y-90293320D01*
X126399188Y-90413018D01*
X126386928Y-90537500D01*
X126390000Y-90689250D01*
X126548750Y-90848000D01*
X127373000Y-90848000D01*
X127373000Y-90828000D01*
X127627000Y-90828000D01*
X127627000Y-90848000D01*
X127647000Y-90848000D01*
X127647000Y-91102000D01*
X127627000Y-91102000D01*
X127627000Y-91122000D01*
X127373000Y-91122000D01*
X127373000Y-91102000D01*
X126548750Y-91102000D01*
X126390000Y-91260750D01*
X126386928Y-91412500D01*
X126399188Y-91536982D01*
X126435498Y-91656680D01*
X126494463Y-91766994D01*
X126573815Y-91863685D01*
X126581058Y-91869629D01*
X126531329Y-91930225D01*
X126452150Y-92078358D01*
X126403392Y-92239092D01*
X126386928Y-92406250D01*
X126386928Y-92843750D01*
X126403392Y-93010908D01*
X126452150Y-93171642D01*
X126531329Y-93319775D01*
X126549100Y-93341430D01*
X126494463Y-93408006D01*
X126435498Y-93518320D01*
X126399188Y-93638018D01*
X126386928Y-93762500D01*
X126390000Y-93914250D01*
X126548750Y-94073000D01*
X127373000Y-94073000D01*
X127373000Y-94053000D01*
X127627000Y-94053000D01*
X127627000Y-94073000D01*
X128973000Y-94073000D01*
X128973000Y-94053000D01*
X129177490Y-94053000D01*
X129177491Y-94347000D01*
X128973000Y-94347000D01*
X128973000Y-94327000D01*
X127627000Y-94327000D01*
X127627000Y-94347000D01*
X127373000Y-94347000D01*
X127373000Y-94327000D01*
X126548750Y-94327000D01*
X126390000Y-94485750D01*
X126386928Y-94637500D01*
X126399188Y-94761982D01*
X126435498Y-94881680D01*
X126439945Y-94890000D01*
X116010000Y-94890000D01*
X116010000Y-94090770D01*
X116125518Y-94125812D01*
X116250000Y-94138072D01*
X117214250Y-94135000D01*
X117373000Y-93976250D01*
X117373000Y-92627000D01*
X117627000Y-92627000D01*
X117627000Y-93976250D01*
X117785750Y-94135000D01*
X118750000Y-94138072D01*
X118874482Y-94125812D01*
X118994180Y-94089502D01*
X119104494Y-94030537D01*
X119201185Y-93951185D01*
X119280537Y-93854494D01*
X119339502Y-93744180D01*
X119375812Y-93624482D01*
X119388072Y-93500000D01*
X121111928Y-93500000D01*
X121124188Y-93624482D01*
X121160498Y-93744180D01*
X121219463Y-93854494D01*
X121298815Y-93951185D01*
X121395506Y-94030537D01*
X121505820Y-94089502D01*
X121625518Y-94125812D01*
X121750000Y-94138072D01*
X122714250Y-94135000D01*
X122873000Y-93976250D01*
X122873000Y-92627000D01*
X123127000Y-92627000D01*
X123127000Y-93976250D01*
X123285750Y-94135000D01*
X124250000Y-94138072D01*
X124374482Y-94125812D01*
X124494180Y-94089502D01*
X124604494Y-94030537D01*
X124701185Y-93951185D01*
X124780537Y-93854494D01*
X124839502Y-93744180D01*
X124875812Y-93624482D01*
X124888072Y-93500000D01*
X124885000Y-92785750D01*
X124726250Y-92627000D01*
X123127000Y-92627000D01*
X122873000Y-92627000D01*
X121273750Y-92627000D01*
X121115000Y-92785750D01*
X121111928Y-93500000D01*
X119388072Y-93500000D01*
X119385000Y-92785750D01*
X119226250Y-92627000D01*
X117627000Y-92627000D01*
X117373000Y-92627000D01*
X117353000Y-92627000D01*
X117353000Y-92373000D01*
X117373000Y-92373000D01*
X117373000Y-91023750D01*
X117627000Y-91023750D01*
X117627000Y-92373000D01*
X119226250Y-92373000D01*
X119385000Y-92214250D01*
X119388072Y-91500000D01*
X121111928Y-91500000D01*
X121115000Y-92214250D01*
X121273750Y-92373000D01*
X122873000Y-92373000D01*
X122873000Y-91023750D01*
X123127000Y-91023750D01*
X123127000Y-92373000D01*
X124726250Y-92373000D01*
X124885000Y-92214250D01*
X124888072Y-91500000D01*
X124875812Y-91375518D01*
X124839502Y-91255820D01*
X124780537Y-91145506D01*
X124701185Y-91048815D01*
X124604494Y-90969463D01*
X124494180Y-90910498D01*
X124374482Y-90874188D01*
X124250000Y-90861928D01*
X123285750Y-90865000D01*
X123127000Y-91023750D01*
X122873000Y-91023750D01*
X122714250Y-90865000D01*
X121750000Y-90861928D01*
X121625518Y-90874188D01*
X121505820Y-90910498D01*
X121395506Y-90969463D01*
X121298815Y-91048815D01*
X121219463Y-91145506D01*
X121160498Y-91255820D01*
X121124188Y-91375518D01*
X121111928Y-91500000D01*
X119388072Y-91500000D01*
X119375812Y-91375518D01*
X119339502Y-91255820D01*
X119280537Y-91145506D01*
X119201185Y-91048815D01*
X119104494Y-90969463D01*
X118994180Y-90910498D01*
X118874482Y-90874188D01*
X118750000Y-90861928D01*
X117785750Y-90865000D01*
X117627000Y-91023750D01*
X117373000Y-91023750D01*
X117214250Y-90865000D01*
X116250000Y-90861928D01*
X116125518Y-90874188D01*
X116010000Y-90909230D01*
X116010000Y-85290770D01*
X116125518Y-85325812D01*
X116250000Y-85338072D01*
X117214250Y-85335000D01*
X117373000Y-85176250D01*
X117373000Y-83827000D01*
X117627000Y-83827000D01*
X117627000Y-85176250D01*
X117785750Y-85335000D01*
X118750000Y-85338072D01*
X118874482Y-85325812D01*
X118994180Y-85289502D01*
X119104494Y-85230537D01*
X119201185Y-85151185D01*
X119280537Y-85054494D01*
X119339502Y-84944180D01*
X119375812Y-84824482D01*
X119388072Y-84700000D01*
X121111928Y-84700000D01*
X121124188Y-84824482D01*
X121160498Y-84944180D01*
X121219463Y-85054494D01*
X121298815Y-85151185D01*
X121395506Y-85230537D01*
X121505820Y-85289502D01*
X121625518Y-85325812D01*
X121750000Y-85338072D01*
X122714250Y-85335000D01*
X122873000Y-85176250D01*
X122873000Y-83827000D01*
X121273750Y-83827000D01*
X121115000Y-83985750D01*
X121111928Y-84700000D01*
X119388072Y-84700000D01*
X119385000Y-83985750D01*
X119226250Y-83827000D01*
X117627000Y-83827000D01*
X117373000Y-83827000D01*
X117353000Y-83827000D01*
X117353000Y-83573000D01*
X117373000Y-83573000D01*
X117373000Y-82223750D01*
X117627000Y-82223750D01*
X117627000Y-83573000D01*
X119226250Y-83573000D01*
X119385000Y-83414250D01*
X119388072Y-82700000D01*
X121111928Y-82700000D01*
X121115000Y-83414250D01*
X121273750Y-83573000D01*
X122873000Y-83573000D01*
X122873000Y-82223750D01*
X122714250Y-82065000D01*
X121750000Y-82061928D01*
X121625518Y-82074188D01*
X121505820Y-82110498D01*
X121395506Y-82169463D01*
X121298815Y-82248815D01*
X121219463Y-82345506D01*
X121160498Y-82455820D01*
X121124188Y-82575518D01*
X121111928Y-82700000D01*
X119388072Y-82700000D01*
X119375812Y-82575518D01*
X119339502Y-82455820D01*
X119280537Y-82345506D01*
X119201185Y-82248815D01*
X119104494Y-82169463D01*
X118994180Y-82110498D01*
X118874482Y-82074188D01*
X118750000Y-82061928D01*
X117785750Y-82065000D01*
X117627000Y-82223750D01*
X117373000Y-82223750D01*
X117214250Y-82065000D01*
X116250000Y-82061928D01*
X116125518Y-82074188D01*
X116010000Y-82109230D01*
X116010000Y-81010000D01*
X125952219Y-81010000D01*
X125952010Y-81011051D01*
G36*
X136819463Y-89604494D02*
G01*
X136898815Y-89701185D01*
X136990000Y-89776019D01*
X136990001Y-92512668D01*
X136986324Y-92550000D01*
X136990001Y-92587333D01*
X137000998Y-92698986D01*
X137003658Y-92707754D01*
X137044454Y-92842246D01*
X137115026Y-92974276D01*
X137156060Y-93024275D01*
X137210000Y-93090001D01*
X137238998Y-93113799D01*
X137665000Y-93539801D01*
X137665000Y-93922665D01*
X137682870Y-94104102D01*
X137753489Y-94336901D01*
X137868168Y-94551449D01*
X138022499Y-94739502D01*
X138205881Y-94890000D01*
X133228768Y-94890000D01*
X133285350Y-94784142D01*
X133334108Y-94623408D01*
X133350572Y-94456250D01*
X133350572Y-93943750D01*
X133334108Y-93776592D01*
X133285350Y-93615858D01*
X133208337Y-93471777D01*
X133243037Y-93429494D01*
X133302002Y-93319180D01*
X133338312Y-93199482D01*
X133350572Y-93075000D01*
X133347500Y-92885750D01*
X133188750Y-92727000D01*
X132402000Y-92727000D01*
X132402000Y-92747000D01*
X132148000Y-92747000D01*
X132148000Y-92727000D01*
X132128000Y-92727000D01*
X132128000Y-92473000D01*
X132148000Y-92473000D01*
X132148000Y-92453000D01*
X132402000Y-92453000D01*
X132402000Y-92473000D01*
X133188750Y-92473000D01*
X133347500Y-92314250D01*
X133350572Y-92125000D01*
X133338312Y-92000518D01*
X133319391Y-91938143D01*
X133330597Y-91934744D01*
X133451717Y-91870004D01*
X133557879Y-91782879D01*
X133645004Y-91676717D01*
X133709744Y-91555597D01*
X133749611Y-91424175D01*
X133763072Y-91287500D01*
X133763072Y-90763072D01*
X134287500Y-90763072D01*
X134424175Y-90749611D01*
X134555597Y-90709744D01*
X134676717Y-90645004D01*
X134782879Y-90557879D01*
X134870004Y-90451717D01*
X134934744Y-90330597D01*
X134974611Y-90199175D01*
X134988072Y-90062500D01*
X134988072Y-89937500D01*
X134974611Y-89800825D01*
X134959193Y-89750000D01*
X134974611Y-89699175D01*
X134977028Y-89674637D01*
X134998815Y-89701185D01*
X135095506Y-89780537D01*
X135205820Y-89839502D01*
X135325518Y-89875812D01*
X135450000Y-89888072D01*
X136250000Y-89888072D01*
X136374482Y-89875812D01*
X136494180Y-89839502D01*
X136604494Y-89780537D01*
X136701185Y-89701185D01*
X136780537Y-89604494D01*
X136800000Y-89568082D01*
X136819463Y-89604494D01*
G37*
X136819463Y-89604494D02*
X136898815Y-89701185D01*
X136990000Y-89776019D01*
X136990001Y-92512668D01*
X136986324Y-92550000D01*
X136990001Y-92587333D01*
X137000998Y-92698986D01*
X137003658Y-92707754D01*
X137044454Y-92842246D01*
X137115026Y-92974276D01*
X137156060Y-93024275D01*
X137210000Y-93090001D01*
X137238998Y-93113799D01*
X137665000Y-93539801D01*
X137665000Y-93922665D01*
X137682870Y-94104102D01*
X137753489Y-94336901D01*
X137868168Y-94551449D01*
X138022499Y-94739502D01*
X138205881Y-94890000D01*
X133228768Y-94890000D01*
X133285350Y-94784142D01*
X133334108Y-94623408D01*
X133350572Y-94456250D01*
X133350572Y-93943750D01*
X133334108Y-93776592D01*
X133285350Y-93615858D01*
X133208337Y-93471777D01*
X133243037Y-93429494D01*
X133302002Y-93319180D01*
X133338312Y-93199482D01*
X133350572Y-93075000D01*
X133347500Y-92885750D01*
X133188750Y-92727000D01*
X132402000Y-92727000D01*
X132402000Y-92747000D01*
X132148000Y-92747000D01*
X132148000Y-92727000D01*
X132128000Y-92727000D01*
X132128000Y-92473000D01*
X132148000Y-92473000D01*
X132148000Y-92453000D01*
X132402000Y-92453000D01*
X132402000Y-92473000D01*
X133188750Y-92473000D01*
X133347500Y-92314250D01*
X133350572Y-92125000D01*
X133338312Y-92000518D01*
X133319391Y-91938143D01*
X133330597Y-91934744D01*
X133451717Y-91870004D01*
X133557879Y-91782879D01*
X133645004Y-91676717D01*
X133709744Y-91555597D01*
X133749611Y-91424175D01*
X133763072Y-91287500D01*
X133763072Y-90763072D01*
X134287500Y-90763072D01*
X134424175Y-90749611D01*
X134555597Y-90709744D01*
X134676717Y-90645004D01*
X134782879Y-90557879D01*
X134870004Y-90451717D01*
X134934744Y-90330597D01*
X134974611Y-90199175D01*
X134988072Y-90062500D01*
X134988072Y-89937500D01*
X134974611Y-89800825D01*
X134959193Y-89750000D01*
X134974611Y-89699175D01*
X134977028Y-89674637D01*
X134998815Y-89701185D01*
X135095506Y-89780537D01*
X135205820Y-89839502D01*
X135325518Y-89875812D01*
X135450000Y-89888072D01*
X136250000Y-89888072D01*
X136374482Y-89875812D01*
X136494180Y-89839502D01*
X136604494Y-89780537D01*
X136701185Y-89701185D01*
X136780537Y-89604494D01*
X136800000Y-89568082D01*
X136819463Y-89604494D01*
G36*
X154290000Y-94890000D02*
G01*
X152255910Y-94890000D01*
X152296825Y-94804099D01*
X152341476Y-94656890D01*
X152220155Y-94427000D01*
X151027000Y-94427000D01*
X151027000Y-94447000D01*
X150773000Y-94447000D01*
X150773000Y-94427000D01*
X150753000Y-94427000D01*
X150753000Y-94173000D01*
X150773000Y-94173000D01*
X150773000Y-94153000D01*
X151027000Y-94153000D01*
X151027000Y-94173000D01*
X152220155Y-94173000D01*
X152341476Y-93943110D01*
X152296825Y-93795901D01*
X152171641Y-93533080D01*
X152072987Y-93400816D01*
X153311004Y-92162800D01*
X153340001Y-92139003D01*
X153434974Y-92023278D01*
X153505546Y-91891249D01*
X153549003Y-91747988D01*
X153560000Y-91636335D01*
X153560000Y-91636326D01*
X153563676Y-91599003D01*
X153560000Y-91561680D01*
X153560000Y-82737323D01*
X153563676Y-82700000D01*
X153560000Y-82662677D01*
X153560000Y-82662667D01*
X153549003Y-82551014D01*
X153505546Y-82407753D01*
X153452095Y-82307754D01*
X153434974Y-82275723D01*
X153363799Y-82188997D01*
X153340001Y-82159999D01*
X153311003Y-82136201D01*
X152388072Y-81213271D01*
X152388072Y-81010000D01*
X154290001Y-81010000D01*
X154290000Y-94890000D01*
G37*
X154290000Y-94890000D02*
X152255910Y-94890000D01*
X152296825Y-94804099D01*
X152341476Y-94656890D01*
X152220155Y-94427000D01*
X151027000Y-94427000D01*
X151027000Y-94447000D01*
X150773000Y-94447000D01*
X150773000Y-94427000D01*
X150753000Y-94427000D01*
X150753000Y-94173000D01*
X150773000Y-94173000D01*
X150773000Y-94153000D01*
X151027000Y-94153000D01*
X151027000Y-94173000D01*
X152220155Y-94173000D01*
X152341476Y-93943110D01*
X152296825Y-93795901D01*
X152171641Y-93533080D01*
X152072987Y-93400816D01*
X153311004Y-92162800D01*
X153340001Y-92139003D01*
X153434974Y-92023278D01*
X153505546Y-91891249D01*
X153549003Y-91747988D01*
X153560000Y-91636335D01*
X153560000Y-91636326D01*
X153563676Y-91599003D01*
X153560000Y-91561680D01*
X153560000Y-82737323D01*
X153563676Y-82700000D01*
X153560000Y-82662677D01*
X153560000Y-82662667D01*
X153549003Y-82551014D01*
X153505546Y-82407753D01*
X153452095Y-82307754D01*
X153434974Y-82275723D01*
X153363799Y-82188997D01*
X153340001Y-82159999D01*
X153311003Y-82136201D01*
X152388072Y-81213271D01*
X152388072Y-81010000D01*
X154290001Y-81010000D01*
X154290000Y-94890000D01*
G36*
X148556201Y-89731003D02*
G01*
X148579999Y-89760001D01*
X148695724Y-89854974D01*
X148827753Y-89925546D01*
X148971014Y-89969003D01*
X149082667Y-89980000D01*
X149082676Y-89980000D01*
X149119999Y-89983676D01*
X149157322Y-89980000D01*
X149621822Y-89980000D01*
X149746525Y-90166632D01*
X149953368Y-90373475D01*
X150127760Y-90490000D01*
X149953368Y-90606525D01*
X149746525Y-90813368D01*
X149621822Y-91000000D01*
X144474802Y-91000000D01*
X143362873Y-89888072D01*
X143850000Y-89888072D01*
X143974482Y-89875812D01*
X144094180Y-89839502D01*
X144204494Y-89780537D01*
X144301185Y-89701185D01*
X144365764Y-89622495D01*
X144467725Y-89706171D01*
X144615858Y-89785350D01*
X144776592Y-89834108D01*
X144943750Y-89850572D01*
X145456250Y-89850572D01*
X145623408Y-89834108D01*
X145784142Y-89785350D01*
X145932275Y-89706171D01*
X146062115Y-89599615D01*
X146168671Y-89469775D01*
X146247850Y-89321642D01*
X146296608Y-89160908D01*
X146313072Y-88993750D01*
X146313072Y-88556250D01*
X146296608Y-88389092D01*
X146247850Y-88228358D01*
X146168671Y-88080225D01*
X146150900Y-88058570D01*
X146205537Y-87991994D01*
X146264502Y-87881680D01*
X146300812Y-87761982D01*
X146313072Y-87637500D01*
X146310000Y-87485750D01*
X146151252Y-87327002D01*
X146152201Y-87327002D01*
X148556201Y-89731003D01*
G37*
X148556201Y-89731003D02*
X148579999Y-89760001D01*
X148695724Y-89854974D01*
X148827753Y-89925546D01*
X148971014Y-89969003D01*
X149082667Y-89980000D01*
X149082676Y-89980000D01*
X149119999Y-89983676D01*
X149157322Y-89980000D01*
X149621822Y-89980000D01*
X149746525Y-90166632D01*
X149953368Y-90373475D01*
X150127760Y-90490000D01*
X149953368Y-90606525D01*
X149746525Y-90813368D01*
X149621822Y-91000000D01*
X144474802Y-91000000D01*
X143362873Y-89888072D01*
X143850000Y-89888072D01*
X143974482Y-89875812D01*
X144094180Y-89839502D01*
X144204494Y-89780537D01*
X144301185Y-89701185D01*
X144365764Y-89622495D01*
X144467725Y-89706171D01*
X144615858Y-89785350D01*
X144776592Y-89834108D01*
X144943750Y-89850572D01*
X145456250Y-89850572D01*
X145623408Y-89834108D01*
X145784142Y-89785350D01*
X145932275Y-89706171D01*
X146062115Y-89599615D01*
X146168671Y-89469775D01*
X146247850Y-89321642D01*
X146296608Y-89160908D01*
X146313072Y-88993750D01*
X146313072Y-88556250D01*
X146296608Y-88389092D01*
X146247850Y-88228358D01*
X146168671Y-88080225D01*
X146150900Y-88058570D01*
X146205537Y-87991994D01*
X146264502Y-87881680D01*
X146300812Y-87761982D01*
X146313072Y-87637500D01*
X146310000Y-87485750D01*
X146151252Y-87327002D01*
X146152201Y-87327002D01*
X148556201Y-89731003D01*
G36*
X131627000Y-88373000D02*
G01*
X131647000Y-88373000D01*
X131647000Y-88627000D01*
X131627000Y-88627000D01*
X131627000Y-88647000D01*
X131373000Y-88647000D01*
X131373000Y-88627000D01*
X131353000Y-88627000D01*
X131353000Y-88373000D01*
X131373000Y-88373000D01*
X131373000Y-88353000D01*
X131627000Y-88353000D01*
X131627000Y-88373000D01*
G37*
X131627000Y-88373000D02*
X131647000Y-88373000D01*
X131647000Y-88627000D01*
X131627000Y-88627000D01*
X131627000Y-88647000D01*
X131373000Y-88647000D01*
X131373000Y-88627000D01*
X131353000Y-88627000D01*
X131353000Y-88373000D01*
X131373000Y-88373000D01*
X131373000Y-88353000D01*
X131627000Y-88353000D01*
X131627000Y-88373000D01*
G36*
X138282639Y-81014392D02*
G01*
X138086973Y-81174972D01*
X137926392Y-81370638D01*
X137807071Y-81593873D01*
X137733593Y-81836096D01*
X137715000Y-82024877D01*
X137715000Y-82375122D01*
X137733593Y-82563903D01*
X137807071Y-82806126D01*
X137926392Y-83029361D01*
X138086972Y-83225028D01*
X138282638Y-83385608D01*
X138505873Y-83504929D01*
X138748096Y-83578407D01*
X139000000Y-83603217D01*
X139251903Y-83578407D01*
X139494126Y-83504929D01*
X139717361Y-83385608D01*
X139913028Y-83225028D01*
X140011824Y-83104645D01*
X140122498Y-83239502D01*
X140310551Y-83393833D01*
X140525099Y-83508511D01*
X140757898Y-83579130D01*
X140809401Y-83584203D01*
X141636200Y-84411002D01*
X141659999Y-84440001D01*
X141775724Y-84534974D01*
X141907753Y-84605546D01*
X142051014Y-84649003D01*
X142162667Y-84660000D01*
X142162676Y-84660000D01*
X142199999Y-84663676D01*
X142237322Y-84660000D01*
X145685199Y-84660000D01*
X145703682Y-84678484D01*
X145682795Y-84709744D01*
X145604774Y-84898102D01*
X145565000Y-85098061D01*
X145565000Y-85301939D01*
X145604774Y-85501898D01*
X145682795Y-85690256D01*
X145796063Y-85859774D01*
X145840000Y-85903711D01*
X145840001Y-86148979D01*
X145799482Y-86136688D01*
X145675000Y-86124428D01*
X145485750Y-86127500D01*
X145327000Y-86286250D01*
X145327000Y-87073000D01*
X145347000Y-87073000D01*
X145347000Y-87327000D01*
X145327000Y-87327000D01*
X145327000Y-87347000D01*
X145073000Y-87347000D01*
X145073000Y-87327000D01*
X145053000Y-87327000D01*
X145053000Y-87073000D01*
X145073000Y-87073000D01*
X145073000Y-86286250D01*
X144914250Y-86127500D01*
X144725000Y-86124428D01*
X144600518Y-86136688D01*
X144480820Y-86172998D01*
X144370506Y-86231963D01*
X144273815Y-86311315D01*
X144210000Y-86389074D01*
X144210000Y-86287322D01*
X144213676Y-86249999D01*
X144210000Y-86212676D01*
X144210000Y-86212667D01*
X144199003Y-86101014D01*
X144155546Y-85957753D01*
X144084974Y-85825724D01*
X143990001Y-85709999D01*
X143960998Y-85686197D01*
X143713804Y-85439003D01*
X143690001Y-85409999D01*
X143574276Y-85315026D01*
X143442247Y-85244454D01*
X143298986Y-85200997D01*
X143187333Y-85190000D01*
X143187322Y-85190000D01*
X143150000Y-85186324D01*
X143112678Y-85190000D01*
X139468328Y-85190000D01*
X139431005Y-85186324D01*
X139393682Y-85190000D01*
X139393673Y-85190000D01*
X139282020Y-85200997D01*
X139138759Y-85244454D01*
X139006730Y-85315026D01*
X139006728Y-85315027D01*
X139006729Y-85315027D01*
X138920002Y-85386201D01*
X138919998Y-85386205D01*
X138891005Y-85409999D01*
X138867211Y-85438992D01*
X137838072Y-86468132D01*
X137838072Y-86350000D01*
X137825812Y-86225518D01*
X137789502Y-86105820D01*
X137730537Y-85995506D01*
X137651185Y-85898815D01*
X137554494Y-85819463D01*
X137444180Y-85760498D01*
X137324482Y-85724188D01*
X137200000Y-85711928D01*
X136400000Y-85711928D01*
X136275518Y-85724188D01*
X136155820Y-85760498D01*
X136045506Y-85819463D01*
X135948815Y-85898815D01*
X135869463Y-85995506D01*
X135810498Y-86105820D01*
X135795398Y-86155598D01*
X134874799Y-85235000D01*
X135001939Y-85235000D01*
X135201898Y-85195226D01*
X135390256Y-85117205D01*
X135559774Y-85003937D01*
X135603711Y-84960000D01*
X135935680Y-84960000D01*
X135973002Y-84963676D01*
X136010324Y-84960000D01*
X136010335Y-84960000D01*
X136121988Y-84949003D01*
X136265249Y-84905546D01*
X136397278Y-84834974D01*
X136513003Y-84740001D01*
X136536806Y-84710997D01*
X136935998Y-84311805D01*
X136965002Y-84288002D01*
X137030861Y-84207753D01*
X137059975Y-84172278D01*
X137130547Y-84040248D01*
X137132147Y-84034974D01*
X137174004Y-83896987D01*
X137185001Y-83785334D01*
X137185001Y-83785325D01*
X137188677Y-83748002D01*
X137185001Y-83710679D01*
X137185001Y-83089321D01*
X137188677Y-83051998D01*
X137185001Y-83014675D01*
X137185001Y-83014666D01*
X137174004Y-82903013D01*
X137130547Y-82759752D01*
X137105059Y-82712068D01*
X137059975Y-82627722D01*
X137016281Y-82574482D01*
X136965002Y-82511998D01*
X136935999Y-82488196D01*
X136536806Y-82089003D01*
X136513003Y-82059999D01*
X136397278Y-81965026D01*
X136265249Y-81894454D01*
X136121988Y-81850997D01*
X136010335Y-81840000D01*
X136010324Y-81840000D01*
X135973002Y-81836324D01*
X135935680Y-81840000D01*
X134124831Y-81840000D01*
X134131171Y-81832275D01*
X134210350Y-81684142D01*
X134259108Y-81523408D01*
X134275572Y-81356250D01*
X134275572Y-81010000D01*
X138290856Y-81010000D01*
X138282639Y-81014392D01*
G37*
X138282639Y-81014392D02*
X138086973Y-81174972D01*
X137926392Y-81370638D01*
X137807071Y-81593873D01*
X137733593Y-81836096D01*
X137715000Y-82024877D01*
X137715000Y-82375122D01*
X137733593Y-82563903D01*
X137807071Y-82806126D01*
X137926392Y-83029361D01*
X138086972Y-83225028D01*
X138282638Y-83385608D01*
X138505873Y-83504929D01*
X138748096Y-83578407D01*
X139000000Y-83603217D01*
X139251903Y-83578407D01*
X139494126Y-83504929D01*
X139717361Y-83385608D01*
X139913028Y-83225028D01*
X140011824Y-83104645D01*
X140122498Y-83239502D01*
X140310551Y-83393833D01*
X140525099Y-83508511D01*
X140757898Y-83579130D01*
X140809401Y-83584203D01*
X141636200Y-84411002D01*
X141659999Y-84440001D01*
X141775724Y-84534974D01*
X141907753Y-84605546D01*
X142051014Y-84649003D01*
X142162667Y-84660000D01*
X142162676Y-84660000D01*
X142199999Y-84663676D01*
X142237322Y-84660000D01*
X145685199Y-84660000D01*
X145703682Y-84678484D01*
X145682795Y-84709744D01*
X145604774Y-84898102D01*
X145565000Y-85098061D01*
X145565000Y-85301939D01*
X145604774Y-85501898D01*
X145682795Y-85690256D01*
X145796063Y-85859774D01*
X145840000Y-85903711D01*
X145840001Y-86148979D01*
X145799482Y-86136688D01*
X145675000Y-86124428D01*
X145485750Y-86127500D01*
X145327000Y-86286250D01*
X145327000Y-87073000D01*
X145347000Y-87073000D01*
X145347000Y-87327000D01*
X145327000Y-87327000D01*
X145327000Y-87347000D01*
X145073000Y-87347000D01*
X145073000Y-87327000D01*
X145053000Y-87327000D01*
X145053000Y-87073000D01*
X145073000Y-87073000D01*
X145073000Y-86286250D01*
X144914250Y-86127500D01*
X144725000Y-86124428D01*
X144600518Y-86136688D01*
X144480820Y-86172998D01*
X144370506Y-86231963D01*
X144273815Y-86311315D01*
X144210000Y-86389074D01*
X144210000Y-86287322D01*
X144213676Y-86249999D01*
X144210000Y-86212676D01*
X144210000Y-86212667D01*
X144199003Y-86101014D01*
X144155546Y-85957753D01*
X144084974Y-85825724D01*
X143990001Y-85709999D01*
X143960998Y-85686197D01*
X143713804Y-85439003D01*
X143690001Y-85409999D01*
X143574276Y-85315026D01*
X143442247Y-85244454D01*
X143298986Y-85200997D01*
X143187333Y-85190000D01*
X143187322Y-85190000D01*
X143150000Y-85186324D01*
X143112678Y-85190000D01*
X139468328Y-85190000D01*
X139431005Y-85186324D01*
X139393682Y-85190000D01*
X139393673Y-85190000D01*
X139282020Y-85200997D01*
X139138759Y-85244454D01*
X139006730Y-85315026D01*
X139006728Y-85315027D01*
X139006729Y-85315027D01*
X138920002Y-85386201D01*
X138919998Y-85386205D01*
X138891005Y-85409999D01*
X138867211Y-85438992D01*
X137838072Y-86468132D01*
X137838072Y-86350000D01*
X137825812Y-86225518D01*
X137789502Y-86105820D01*
X137730537Y-85995506D01*
X137651185Y-85898815D01*
X137554494Y-85819463D01*
X137444180Y-85760498D01*
X137324482Y-85724188D01*
X137200000Y-85711928D01*
X136400000Y-85711928D01*
X136275518Y-85724188D01*
X136155820Y-85760498D01*
X136045506Y-85819463D01*
X135948815Y-85898815D01*
X135869463Y-85995506D01*
X135810498Y-86105820D01*
X135795398Y-86155598D01*
X134874799Y-85235000D01*
X135001939Y-85235000D01*
X135201898Y-85195226D01*
X135390256Y-85117205D01*
X135559774Y-85003937D01*
X135603711Y-84960000D01*
X135935680Y-84960000D01*
X135973002Y-84963676D01*
X136010324Y-84960000D01*
X136010335Y-84960000D01*
X136121988Y-84949003D01*
X136265249Y-84905546D01*
X136397278Y-84834974D01*
X136513003Y-84740001D01*
X136536806Y-84710997D01*
X136935998Y-84311805D01*
X136965002Y-84288002D01*
X137030861Y-84207753D01*
X137059975Y-84172278D01*
X137130547Y-84040248D01*
X137132147Y-84034974D01*
X137174004Y-83896987D01*
X137185001Y-83785334D01*
X137185001Y-83785325D01*
X137188677Y-83748002D01*
X137185001Y-83710679D01*
X137185001Y-83089321D01*
X137188677Y-83051998D01*
X137185001Y-83014675D01*
X137185001Y-83014666D01*
X137174004Y-82903013D01*
X137130547Y-82759752D01*
X137105059Y-82712068D01*
X137059975Y-82627722D01*
X137016281Y-82574482D01*
X136965002Y-82511998D01*
X136935999Y-82488196D01*
X136536806Y-82089003D01*
X136513003Y-82059999D01*
X136397278Y-81965026D01*
X136265249Y-81894454D01*
X136121988Y-81850997D01*
X136010335Y-81840000D01*
X136010324Y-81840000D01*
X135973002Y-81836324D01*
X135935680Y-81840000D01*
X134124831Y-81840000D01*
X134131171Y-81832275D01*
X134210350Y-81684142D01*
X134259108Y-81523408D01*
X134275572Y-81356250D01*
X134275572Y-81010000D01*
X138290856Y-81010000D01*
X138282639Y-81014392D01*
G36*
X126205545Y-87030744D02*
G01*
X126137873Y-86963072D01*
X126273217Y-86963072D01*
X126205545Y-87030744D01*
G37*
X126205545Y-87030744D02*
X126137873Y-86963072D01*
X126273217Y-86963072D01*
X126205545Y-87030744D01*
G36*
X129392725Y-83668671D02*
G01*
X129540858Y-83747850D01*
X129701592Y-83796608D01*
X129868750Y-83813072D01*
X130306250Y-83813072D01*
X130473408Y-83796608D01*
X130634142Y-83747850D01*
X130726963Y-83698236D01*
X130488998Y-83936201D01*
X130460000Y-83959999D01*
X130436202Y-83988997D01*
X130436201Y-83988998D01*
X130365026Y-84075724D01*
X130294454Y-84207754D01*
X130270112Y-84288002D01*
X130250998Y-84351014D01*
X130246561Y-84396063D01*
X130236324Y-84500000D01*
X130240001Y-84537332D01*
X130240001Y-85037774D01*
X130199175Y-85025389D01*
X130062500Y-85011928D01*
X129937500Y-85011928D01*
X129800825Y-85025389D01*
X129669403Y-85065256D01*
X129649195Y-85076057D01*
X129593244Y-85020106D01*
X129423726Y-84906838D01*
X129235368Y-84828817D01*
X129035409Y-84789043D01*
X128831531Y-84789043D01*
X128631572Y-84828817D01*
X128462543Y-84898832D01*
X128459774Y-84896063D01*
X128290256Y-84782795D01*
X128101898Y-84704774D01*
X127901939Y-84665000D01*
X127698061Y-84665000D01*
X127630338Y-84678471D01*
X127518386Y-84586595D01*
X127364850Y-84504528D01*
X127198254Y-84453992D01*
X127025000Y-84436928D01*
X125937873Y-84436928D01*
X126211729Y-84163072D01*
X127025000Y-84163072D01*
X127198254Y-84146008D01*
X127364850Y-84095472D01*
X127518386Y-84013405D01*
X127652962Y-83902962D01*
X127763405Y-83768386D01*
X127817015Y-83668089D01*
X127817725Y-83668671D01*
X127965858Y-83747850D01*
X128126592Y-83796608D01*
X128293750Y-83813072D01*
X128731250Y-83813072D01*
X128898408Y-83796608D01*
X129059142Y-83747850D01*
X129207275Y-83668671D01*
X129300000Y-83592574D01*
X129392725Y-83668671D01*
G37*
X129392725Y-83668671D02*
X129540858Y-83747850D01*
X129701592Y-83796608D01*
X129868750Y-83813072D01*
X130306250Y-83813072D01*
X130473408Y-83796608D01*
X130634142Y-83747850D01*
X130726963Y-83698236D01*
X130488998Y-83936201D01*
X130460000Y-83959999D01*
X130436202Y-83988997D01*
X130436201Y-83988998D01*
X130365026Y-84075724D01*
X130294454Y-84207754D01*
X130270112Y-84288002D01*
X130250998Y-84351014D01*
X130246561Y-84396063D01*
X130236324Y-84500000D01*
X130240001Y-84537332D01*
X130240001Y-85037774D01*
X130199175Y-85025389D01*
X130062500Y-85011928D01*
X129937500Y-85011928D01*
X129800825Y-85025389D01*
X129669403Y-85065256D01*
X129649195Y-85076057D01*
X129593244Y-85020106D01*
X129423726Y-84906838D01*
X129235368Y-84828817D01*
X129035409Y-84789043D01*
X128831531Y-84789043D01*
X128631572Y-84828817D01*
X128462543Y-84898832D01*
X128459774Y-84896063D01*
X128290256Y-84782795D01*
X128101898Y-84704774D01*
X127901939Y-84665000D01*
X127698061Y-84665000D01*
X127630338Y-84678471D01*
X127518386Y-84586595D01*
X127364850Y-84504528D01*
X127198254Y-84453992D01*
X127025000Y-84436928D01*
X125937873Y-84436928D01*
X126211729Y-84163072D01*
X127025000Y-84163072D01*
X127198254Y-84146008D01*
X127364850Y-84095472D01*
X127518386Y-84013405D01*
X127652962Y-83902962D01*
X127763405Y-83768386D01*
X127817015Y-83668089D01*
X127817725Y-83668671D01*
X127965858Y-83747850D01*
X128126592Y-83796608D01*
X128293750Y-83813072D01*
X128731250Y-83813072D01*
X128898408Y-83796608D01*
X129059142Y-83747850D01*
X129207275Y-83668671D01*
X129300000Y-83592574D01*
X129392725Y-83668671D01*
G04 #@! TD*
M02*
