G04 #@! TF.GenerationSoftware,KiCad,Pcbnew,(5.1.6)-1*
G04 #@! TF.CreationDate,2021-04-01T10:41:09+07:00*
G04 #@! TF.ProjectId,esp-avr-usb-converter,6573702d-6176-4722-9d75-73622d636f6e,rev?*
G04 #@! TF.SameCoordinates,Original*
G04 #@! TF.FileFunction,Soldermask,Top*
G04 #@! TF.FilePolarity,Negative*
%FSLAX46Y46*%
G04 Gerber Fmt 4.6, Leading zero omitted, Abs format (unit mm)*
G04 Created by KiCad (PCBNEW (5.1.6)-1) date 2021-04-01 10:41:09*
%MOMM*%
%LPD*%
G01*
G04 APERTURE LIST*
%ADD10R,2.600000X2.100000*%
%ADD11R,2.600000X0.600000*%
%ADD12C,1.000000*%
%ADD13R,1.800000X1.800000*%
%ADD14O,1.800000X1.800000*%
%ADD15R,0.900000X1.000000*%
%ADD16O,1.300000X1.624000*%
%ADD17O,1.400000X1.624000*%
%ADD18R,3.450000X3.450000*%
G04 APERTURE END LIST*
G04 #@! TO.C,C3*
G36*
G01*
X139981250Y-87412500D02*
X139418750Y-87412500D01*
G75*
G02*
X139175000Y-87168750I0J243750D01*
G01*
X139175000Y-86681250D01*
G75*
G02*
X139418750Y-86437500I243750J0D01*
G01*
X139981250Y-86437500D01*
G75*
G02*
X140225000Y-86681250I0J-243750D01*
G01*
X140225000Y-87168750D01*
G75*
G02*
X139981250Y-87412500I-243750J0D01*
G01*
G37*
G36*
G01*
X139981250Y-88987500D02*
X139418750Y-88987500D01*
G75*
G02*
X139175000Y-88743750I0J243750D01*
G01*
X139175000Y-88256250D01*
G75*
G02*
X139418750Y-88012500I243750J0D01*
G01*
X139981250Y-88012500D01*
G75*
G02*
X140225000Y-88256250I0J-243750D01*
G01*
X140225000Y-88743750D01*
G75*
G02*
X139981250Y-88987500I-243750J0D01*
G01*
G37*
G04 #@! TD*
G04 #@! TO.C,C4*
G36*
G01*
X127218750Y-92137500D02*
X127781250Y-92137500D01*
G75*
G02*
X128025000Y-92381250I0J-243750D01*
G01*
X128025000Y-92868750D01*
G75*
G02*
X127781250Y-93112500I-243750J0D01*
G01*
X127218750Y-93112500D01*
G75*
G02*
X126975000Y-92868750I0J243750D01*
G01*
X126975000Y-92381250D01*
G75*
G02*
X127218750Y-92137500I243750J0D01*
G01*
G37*
G36*
G01*
X127218750Y-93712500D02*
X127781250Y-93712500D01*
G75*
G02*
X128025000Y-93956250I0J-243750D01*
G01*
X128025000Y-94443750D01*
G75*
G02*
X127781250Y-94687500I-243750J0D01*
G01*
X127218750Y-94687500D01*
G75*
G02*
X126975000Y-94443750I0J243750D01*
G01*
X126975000Y-93956250D01*
G75*
G02*
X127218750Y-93712500I243750J0D01*
G01*
G37*
G04 #@! TD*
G04 #@! TO.C,C5*
G36*
G01*
X128818750Y-93712500D02*
X129381250Y-93712500D01*
G75*
G02*
X129625000Y-93956250I0J-243750D01*
G01*
X129625000Y-94443750D01*
G75*
G02*
X129381250Y-94687500I-243750J0D01*
G01*
X128818750Y-94687500D01*
G75*
G02*
X128575000Y-94443750I0J243750D01*
G01*
X128575000Y-93956250D01*
G75*
G02*
X128818750Y-93712500I243750J0D01*
G01*
G37*
G36*
G01*
X128818750Y-92137500D02*
X129381250Y-92137500D01*
G75*
G02*
X129625000Y-92381250I0J-243750D01*
G01*
X129625000Y-92868750D01*
G75*
G02*
X129381250Y-93112500I-243750J0D01*
G01*
X128818750Y-93112500D01*
G75*
G02*
X128575000Y-92868750I0J243750D01*
G01*
X128575000Y-92381250D01*
G75*
G02*
X128818750Y-92137500I243750J0D01*
G01*
G37*
G04 #@! TD*
G04 #@! TO.C,C6*
G36*
G01*
X127781250Y-91462500D02*
X127218750Y-91462500D01*
G75*
G02*
X126975000Y-91218750I0J243750D01*
G01*
X126975000Y-90731250D01*
G75*
G02*
X127218750Y-90487500I243750J0D01*
G01*
X127781250Y-90487500D01*
G75*
G02*
X128025000Y-90731250I0J-243750D01*
G01*
X128025000Y-91218750D01*
G75*
G02*
X127781250Y-91462500I-243750J0D01*
G01*
G37*
G36*
G01*
X127781250Y-89887500D02*
X127218750Y-89887500D01*
G75*
G02*
X126975000Y-89643750I0J243750D01*
G01*
X126975000Y-89156250D01*
G75*
G02*
X127218750Y-88912500I243750J0D01*
G01*
X127781250Y-88912500D01*
G75*
G02*
X128025000Y-89156250I0J-243750D01*
G01*
X128025000Y-89643750D01*
G75*
G02*
X127781250Y-89887500I-243750J0D01*
G01*
G37*
G04 #@! TD*
G04 #@! TO.C,D1*
G36*
G01*
X144918750Y-88287500D02*
X145481250Y-88287500D01*
G75*
G02*
X145725000Y-88531250I0J-243750D01*
G01*
X145725000Y-89018750D01*
G75*
G02*
X145481250Y-89262500I-243750J0D01*
G01*
X144918750Y-89262500D01*
G75*
G02*
X144675000Y-89018750I0J243750D01*
G01*
X144675000Y-88531250D01*
G75*
G02*
X144918750Y-88287500I243750J0D01*
G01*
G37*
G36*
G01*
X144918750Y-86712500D02*
X145481250Y-86712500D01*
G75*
G02*
X145725000Y-86956250I0J-243750D01*
G01*
X145725000Y-87443750D01*
G75*
G02*
X145481250Y-87687500I-243750J0D01*
G01*
X144918750Y-87687500D01*
G75*
G02*
X144675000Y-87443750I0J243750D01*
G01*
X144675000Y-86956250D01*
G75*
G02*
X144918750Y-86712500I243750J0D01*
G01*
G37*
G04 #@! TD*
G04 #@! TO.C,D3*
G36*
G01*
X130587500Y-80818750D02*
X130587500Y-81381250D01*
G75*
G02*
X130343750Y-81625000I-243750J0D01*
G01*
X129856250Y-81625000D01*
G75*
G02*
X129612500Y-81381250I0J243750D01*
G01*
X129612500Y-80818750D01*
G75*
G02*
X129856250Y-80575000I243750J0D01*
G01*
X130343750Y-80575000D01*
G75*
G02*
X130587500Y-80818750I0J-243750D01*
G01*
G37*
G36*
G01*
X129012500Y-80818750D02*
X129012500Y-81381250D01*
G75*
G02*
X128768750Y-81625000I-243750J0D01*
G01*
X128281250Y-81625000D01*
G75*
G02*
X128037500Y-81381250I0J243750D01*
G01*
X128037500Y-80818750D01*
G75*
G02*
X128281250Y-80575000I243750J0D01*
G01*
X128768750Y-80575000D01*
G75*
G02*
X129012500Y-80818750I0J-243750D01*
G01*
G37*
G04 #@! TD*
G04 #@! TO.C,D4*
G36*
G01*
X129000000Y-82418750D02*
X129000000Y-82981250D01*
G75*
G02*
X128756250Y-83225000I-243750J0D01*
G01*
X128268750Y-83225000D01*
G75*
G02*
X128025000Y-82981250I0J243750D01*
G01*
X128025000Y-82418750D01*
G75*
G02*
X128268750Y-82175000I243750J0D01*
G01*
X128756250Y-82175000D01*
G75*
G02*
X129000000Y-82418750I0J-243750D01*
G01*
G37*
G36*
G01*
X130575000Y-82418750D02*
X130575000Y-82981250D01*
G75*
G02*
X130331250Y-83225000I-243750J0D01*
G01*
X129843750Y-83225000D01*
G75*
G02*
X129600000Y-82981250I0J243750D01*
G01*
X129600000Y-82418750D01*
G75*
G02*
X129843750Y-82175000I243750J0D01*
G01*
X130331250Y-82175000D01*
G75*
G02*
X130575000Y-82418750I0J-243750D01*
G01*
G37*
G04 #@! TD*
D10*
G04 #@! TO.C,J1*
X117500000Y-83700000D03*
X117500000Y-92500000D03*
X123000000Y-83700000D03*
X123000000Y-92500000D03*
D11*
X123000000Y-86500000D03*
X123000000Y-87300000D03*
X123000000Y-88100000D03*
X123000000Y-88900000D03*
X123000000Y-89700000D03*
D12*
X120400000Y-85900000D03*
X120400000Y-90300000D03*
G04 #@! TD*
D13*
G04 #@! TO.C,J2*
X150900000Y-81600000D03*
D14*
X150900000Y-84140000D03*
X150900000Y-86680000D03*
X150900000Y-89220000D03*
X150900000Y-91760000D03*
X150900000Y-94300000D03*
G04 #@! TD*
D15*
G04 #@! TO.C,Q1*
X142500000Y-86800000D03*
X143450000Y-88800000D03*
X141550000Y-88800000D03*
G04 #@! TD*
G04 #@! TO.C,Q2*
X135850000Y-88800000D03*
X137750000Y-88800000D03*
X136800000Y-86800000D03*
G04 #@! TD*
G04 #@! TO.C,R5*
G36*
G01*
X130212500Y-92881250D02*
X130212500Y-92318750D01*
G75*
G02*
X130456250Y-92075000I243750J0D01*
G01*
X130943750Y-92075000D01*
G75*
G02*
X131187500Y-92318750I0J-243750D01*
G01*
X131187500Y-92881250D01*
G75*
G02*
X130943750Y-93125000I-243750J0D01*
G01*
X130456250Y-93125000D01*
G75*
G02*
X130212500Y-92881250I0J243750D01*
G01*
G37*
G36*
G01*
X131787500Y-92881250D02*
X131787500Y-92318750D01*
G75*
G02*
X132031250Y-92075000I243750J0D01*
G01*
X132518750Y-92075000D01*
G75*
G02*
X132762500Y-92318750I0J-243750D01*
G01*
X132762500Y-92881250D01*
G75*
G02*
X132518750Y-93125000I-243750J0D01*
G01*
X132031250Y-93125000D01*
G75*
G02*
X131787500Y-92881250I0J243750D01*
G01*
G37*
G04 #@! TD*
G04 #@! TO.C,R6*
G36*
G01*
X131187500Y-93918750D02*
X131187500Y-94481250D01*
G75*
G02*
X130943750Y-94725000I-243750J0D01*
G01*
X130456250Y-94725000D01*
G75*
G02*
X130212500Y-94481250I0J243750D01*
G01*
X130212500Y-93918750D01*
G75*
G02*
X130456250Y-93675000I243750J0D01*
G01*
X130943750Y-93675000D01*
G75*
G02*
X131187500Y-93918750I0J-243750D01*
G01*
G37*
G36*
G01*
X132762500Y-93918750D02*
X132762500Y-94481250D01*
G75*
G02*
X132518750Y-94725000I-243750J0D01*
G01*
X132031250Y-94725000D01*
G75*
G02*
X131787500Y-94481250I0J243750D01*
G01*
X131787500Y-93918750D01*
G75*
G02*
X132031250Y-93675000I243750J0D01*
G01*
X132518750Y-93675000D01*
G75*
G02*
X132762500Y-93918750I0J-243750D01*
G01*
G37*
G04 #@! TD*
G04 #@! TO.C,R7*
G36*
G01*
X131137500Y-81381250D02*
X131137500Y-80818750D01*
G75*
G02*
X131381250Y-80575000I243750J0D01*
G01*
X131868750Y-80575000D01*
G75*
G02*
X132112500Y-80818750I0J-243750D01*
G01*
X132112500Y-81381250D01*
G75*
G02*
X131868750Y-81625000I-243750J0D01*
G01*
X131381250Y-81625000D01*
G75*
G02*
X131137500Y-81381250I0J243750D01*
G01*
G37*
G36*
G01*
X132712500Y-81381250D02*
X132712500Y-80818750D01*
G75*
G02*
X132956250Y-80575000I243750J0D01*
G01*
X133443750Y-80575000D01*
G75*
G02*
X133687500Y-80818750I0J-243750D01*
G01*
X133687500Y-81381250D01*
G75*
G02*
X133443750Y-81625000I-243750J0D01*
G01*
X132956250Y-81625000D01*
G75*
G02*
X132712500Y-81381250I0J243750D01*
G01*
G37*
G04 #@! TD*
G04 #@! TO.C,R8*
G36*
G01*
X132712500Y-82981250D02*
X132712500Y-82418750D01*
G75*
G02*
X132956250Y-82175000I243750J0D01*
G01*
X133443750Y-82175000D01*
G75*
G02*
X133687500Y-82418750I0J-243750D01*
G01*
X133687500Y-82981250D01*
G75*
G02*
X133443750Y-83225000I-243750J0D01*
G01*
X132956250Y-83225000D01*
G75*
G02*
X132712500Y-82981250I0J243750D01*
G01*
G37*
G36*
G01*
X131137500Y-82981250D02*
X131137500Y-82418750D01*
G75*
G02*
X131381250Y-82175000I243750J0D01*
G01*
X131868750Y-82175000D01*
G75*
G02*
X132112500Y-82418750I0J-243750D01*
G01*
X132112500Y-82981250D01*
G75*
G02*
X131868750Y-83225000I-243750J0D01*
G01*
X131381250Y-83225000D01*
G75*
G02*
X131137500Y-82981250I0J243750D01*
G01*
G37*
G04 #@! TD*
D16*
G04 #@! TO.C,SW1*
X140900000Y-93700000D03*
D17*
X142900000Y-93700000D03*
D16*
X138900000Y-93700000D03*
G04 #@! TD*
G04 #@! TO.C,SW2*
X143000000Y-82200000D03*
D17*
X139000000Y-82200000D03*
D16*
X141000000Y-82200000D03*
G04 #@! TD*
G04 #@! TO.C,U2*
G36*
G01*
X128600000Y-87087500D02*
X128600000Y-86912500D01*
G75*
G02*
X128687500Y-86825000I87500J0D01*
G01*
X129412500Y-86825000D01*
G75*
G02*
X129500000Y-86912500I0J-87500D01*
G01*
X129500000Y-87087500D01*
G75*
G02*
X129412500Y-87175000I-87500J0D01*
G01*
X128687500Y-87175000D01*
G75*
G02*
X128600000Y-87087500I0J87500D01*
G01*
G37*
G36*
G01*
X128600000Y-87587500D02*
X128600000Y-87412500D01*
G75*
G02*
X128687500Y-87325000I87500J0D01*
G01*
X129412500Y-87325000D01*
G75*
G02*
X129500000Y-87412500I0J-87500D01*
G01*
X129500000Y-87587500D01*
G75*
G02*
X129412500Y-87675000I-87500J0D01*
G01*
X128687500Y-87675000D01*
G75*
G02*
X128600000Y-87587500I0J87500D01*
G01*
G37*
G36*
G01*
X128600000Y-88087500D02*
X128600000Y-87912500D01*
G75*
G02*
X128687500Y-87825000I87500J0D01*
G01*
X129412500Y-87825000D01*
G75*
G02*
X129500000Y-87912500I0J-87500D01*
G01*
X129500000Y-88087500D01*
G75*
G02*
X129412500Y-88175000I-87500J0D01*
G01*
X128687500Y-88175000D01*
G75*
G02*
X128600000Y-88087500I0J87500D01*
G01*
G37*
G36*
G01*
X128600000Y-88587500D02*
X128600000Y-88412500D01*
G75*
G02*
X128687500Y-88325000I87500J0D01*
G01*
X129412500Y-88325000D01*
G75*
G02*
X129500000Y-88412500I0J-87500D01*
G01*
X129500000Y-88587500D01*
G75*
G02*
X129412500Y-88675000I-87500J0D01*
G01*
X128687500Y-88675000D01*
G75*
G02*
X128600000Y-88587500I0J87500D01*
G01*
G37*
G36*
G01*
X128600000Y-89087500D02*
X128600000Y-88912500D01*
G75*
G02*
X128687500Y-88825000I87500J0D01*
G01*
X129412500Y-88825000D01*
G75*
G02*
X129500000Y-88912500I0J-87500D01*
G01*
X129500000Y-89087500D01*
G75*
G02*
X129412500Y-89175000I-87500J0D01*
G01*
X128687500Y-89175000D01*
G75*
G02*
X128600000Y-89087500I0J87500D01*
G01*
G37*
G36*
G01*
X128600000Y-89587500D02*
X128600000Y-89412500D01*
G75*
G02*
X128687500Y-89325000I87500J0D01*
G01*
X129412500Y-89325000D01*
G75*
G02*
X129500000Y-89412500I0J-87500D01*
G01*
X129500000Y-89587500D01*
G75*
G02*
X129412500Y-89675000I-87500J0D01*
G01*
X128687500Y-89675000D01*
G75*
G02*
X128600000Y-89587500I0J87500D01*
G01*
G37*
G36*
G01*
X128600000Y-90087500D02*
X128600000Y-89912500D01*
G75*
G02*
X128687500Y-89825000I87500J0D01*
G01*
X129412500Y-89825000D01*
G75*
G02*
X129500000Y-89912500I0J-87500D01*
G01*
X129500000Y-90087500D01*
G75*
G02*
X129412500Y-90175000I-87500J0D01*
G01*
X128687500Y-90175000D01*
G75*
G02*
X128600000Y-90087500I0J87500D01*
G01*
G37*
G36*
G01*
X129825000Y-91312500D02*
X129825000Y-90587500D01*
G75*
G02*
X129912500Y-90500000I87500J0D01*
G01*
X130087500Y-90500000D01*
G75*
G02*
X130175000Y-90587500I0J-87500D01*
G01*
X130175000Y-91312500D01*
G75*
G02*
X130087500Y-91400000I-87500J0D01*
G01*
X129912500Y-91400000D01*
G75*
G02*
X129825000Y-91312500I0J87500D01*
G01*
G37*
G36*
G01*
X130325000Y-91312500D02*
X130325000Y-90587500D01*
G75*
G02*
X130412500Y-90500000I87500J0D01*
G01*
X130587500Y-90500000D01*
G75*
G02*
X130675000Y-90587500I0J-87500D01*
G01*
X130675000Y-91312500D01*
G75*
G02*
X130587500Y-91400000I-87500J0D01*
G01*
X130412500Y-91400000D01*
G75*
G02*
X130325000Y-91312500I0J87500D01*
G01*
G37*
G36*
G01*
X130825000Y-91312500D02*
X130825000Y-90587500D01*
G75*
G02*
X130912500Y-90500000I87500J0D01*
G01*
X131087500Y-90500000D01*
G75*
G02*
X131175000Y-90587500I0J-87500D01*
G01*
X131175000Y-91312500D01*
G75*
G02*
X131087500Y-91400000I-87500J0D01*
G01*
X130912500Y-91400000D01*
G75*
G02*
X130825000Y-91312500I0J87500D01*
G01*
G37*
G36*
G01*
X131325000Y-91312500D02*
X131325000Y-90587500D01*
G75*
G02*
X131412500Y-90500000I87500J0D01*
G01*
X131587500Y-90500000D01*
G75*
G02*
X131675000Y-90587500I0J-87500D01*
G01*
X131675000Y-91312500D01*
G75*
G02*
X131587500Y-91400000I-87500J0D01*
G01*
X131412500Y-91400000D01*
G75*
G02*
X131325000Y-91312500I0J87500D01*
G01*
G37*
G36*
G01*
X131825000Y-91312500D02*
X131825000Y-90587500D01*
G75*
G02*
X131912500Y-90500000I87500J0D01*
G01*
X132087500Y-90500000D01*
G75*
G02*
X132175000Y-90587500I0J-87500D01*
G01*
X132175000Y-91312500D01*
G75*
G02*
X132087500Y-91400000I-87500J0D01*
G01*
X131912500Y-91400000D01*
G75*
G02*
X131825000Y-91312500I0J87500D01*
G01*
G37*
G36*
G01*
X132325000Y-91312500D02*
X132325000Y-90587500D01*
G75*
G02*
X132412500Y-90500000I87500J0D01*
G01*
X132587500Y-90500000D01*
G75*
G02*
X132675000Y-90587500I0J-87500D01*
G01*
X132675000Y-91312500D01*
G75*
G02*
X132587500Y-91400000I-87500J0D01*
G01*
X132412500Y-91400000D01*
G75*
G02*
X132325000Y-91312500I0J87500D01*
G01*
G37*
G36*
G01*
X132825000Y-91312500D02*
X132825000Y-90587500D01*
G75*
G02*
X132912500Y-90500000I87500J0D01*
G01*
X133087500Y-90500000D01*
G75*
G02*
X133175000Y-90587500I0J-87500D01*
G01*
X133175000Y-91312500D01*
G75*
G02*
X133087500Y-91400000I-87500J0D01*
G01*
X132912500Y-91400000D01*
G75*
G02*
X132825000Y-91312500I0J87500D01*
G01*
G37*
G36*
G01*
X133500000Y-90087500D02*
X133500000Y-89912500D01*
G75*
G02*
X133587500Y-89825000I87500J0D01*
G01*
X134312500Y-89825000D01*
G75*
G02*
X134400000Y-89912500I0J-87500D01*
G01*
X134400000Y-90087500D01*
G75*
G02*
X134312500Y-90175000I-87500J0D01*
G01*
X133587500Y-90175000D01*
G75*
G02*
X133500000Y-90087500I0J87500D01*
G01*
G37*
G36*
G01*
X133500000Y-89587500D02*
X133500000Y-89412500D01*
G75*
G02*
X133587500Y-89325000I87500J0D01*
G01*
X134312500Y-89325000D01*
G75*
G02*
X134400000Y-89412500I0J-87500D01*
G01*
X134400000Y-89587500D01*
G75*
G02*
X134312500Y-89675000I-87500J0D01*
G01*
X133587500Y-89675000D01*
G75*
G02*
X133500000Y-89587500I0J87500D01*
G01*
G37*
G36*
G01*
X133500000Y-89087500D02*
X133500000Y-88912500D01*
G75*
G02*
X133587500Y-88825000I87500J0D01*
G01*
X134312500Y-88825000D01*
G75*
G02*
X134400000Y-88912500I0J-87500D01*
G01*
X134400000Y-89087500D01*
G75*
G02*
X134312500Y-89175000I-87500J0D01*
G01*
X133587500Y-89175000D01*
G75*
G02*
X133500000Y-89087500I0J87500D01*
G01*
G37*
G36*
G01*
X133500000Y-88587500D02*
X133500000Y-88412500D01*
G75*
G02*
X133587500Y-88325000I87500J0D01*
G01*
X134312500Y-88325000D01*
G75*
G02*
X134400000Y-88412500I0J-87500D01*
G01*
X134400000Y-88587500D01*
G75*
G02*
X134312500Y-88675000I-87500J0D01*
G01*
X133587500Y-88675000D01*
G75*
G02*
X133500000Y-88587500I0J87500D01*
G01*
G37*
G36*
G01*
X133500000Y-88087500D02*
X133500000Y-87912500D01*
G75*
G02*
X133587500Y-87825000I87500J0D01*
G01*
X134312500Y-87825000D01*
G75*
G02*
X134400000Y-87912500I0J-87500D01*
G01*
X134400000Y-88087500D01*
G75*
G02*
X134312500Y-88175000I-87500J0D01*
G01*
X133587500Y-88175000D01*
G75*
G02*
X133500000Y-88087500I0J87500D01*
G01*
G37*
G36*
G01*
X133500000Y-87587500D02*
X133500000Y-87412500D01*
G75*
G02*
X133587500Y-87325000I87500J0D01*
G01*
X134312500Y-87325000D01*
G75*
G02*
X134400000Y-87412500I0J-87500D01*
G01*
X134400000Y-87587500D01*
G75*
G02*
X134312500Y-87675000I-87500J0D01*
G01*
X133587500Y-87675000D01*
G75*
G02*
X133500000Y-87587500I0J87500D01*
G01*
G37*
G36*
G01*
X133500000Y-87087500D02*
X133500000Y-86912500D01*
G75*
G02*
X133587500Y-86825000I87500J0D01*
G01*
X134312500Y-86825000D01*
G75*
G02*
X134400000Y-86912500I0J-87500D01*
G01*
X134400000Y-87087500D01*
G75*
G02*
X134312500Y-87175000I-87500J0D01*
G01*
X133587500Y-87175000D01*
G75*
G02*
X133500000Y-87087500I0J87500D01*
G01*
G37*
G36*
G01*
X132825000Y-86412500D02*
X132825000Y-85687500D01*
G75*
G02*
X132912500Y-85600000I87500J0D01*
G01*
X133087500Y-85600000D01*
G75*
G02*
X133175000Y-85687500I0J-87500D01*
G01*
X133175000Y-86412500D01*
G75*
G02*
X133087500Y-86500000I-87500J0D01*
G01*
X132912500Y-86500000D01*
G75*
G02*
X132825000Y-86412500I0J87500D01*
G01*
G37*
G36*
G01*
X132325000Y-86412500D02*
X132325000Y-85687500D01*
G75*
G02*
X132412500Y-85600000I87500J0D01*
G01*
X132587500Y-85600000D01*
G75*
G02*
X132675000Y-85687500I0J-87500D01*
G01*
X132675000Y-86412500D01*
G75*
G02*
X132587500Y-86500000I-87500J0D01*
G01*
X132412500Y-86500000D01*
G75*
G02*
X132325000Y-86412500I0J87500D01*
G01*
G37*
G36*
G01*
X131825000Y-86412500D02*
X131825000Y-85687500D01*
G75*
G02*
X131912500Y-85600000I87500J0D01*
G01*
X132087500Y-85600000D01*
G75*
G02*
X132175000Y-85687500I0J-87500D01*
G01*
X132175000Y-86412500D01*
G75*
G02*
X132087500Y-86500000I-87500J0D01*
G01*
X131912500Y-86500000D01*
G75*
G02*
X131825000Y-86412500I0J87500D01*
G01*
G37*
G36*
G01*
X131325000Y-86412500D02*
X131325000Y-85687500D01*
G75*
G02*
X131412500Y-85600000I87500J0D01*
G01*
X131587500Y-85600000D01*
G75*
G02*
X131675000Y-85687500I0J-87500D01*
G01*
X131675000Y-86412500D01*
G75*
G02*
X131587500Y-86500000I-87500J0D01*
G01*
X131412500Y-86500000D01*
G75*
G02*
X131325000Y-86412500I0J87500D01*
G01*
G37*
G36*
G01*
X130825000Y-86412500D02*
X130825000Y-85687500D01*
G75*
G02*
X130912500Y-85600000I87500J0D01*
G01*
X131087500Y-85600000D01*
G75*
G02*
X131175000Y-85687500I0J-87500D01*
G01*
X131175000Y-86412500D01*
G75*
G02*
X131087500Y-86500000I-87500J0D01*
G01*
X130912500Y-86500000D01*
G75*
G02*
X130825000Y-86412500I0J87500D01*
G01*
G37*
G36*
G01*
X130325000Y-86412500D02*
X130325000Y-85687500D01*
G75*
G02*
X130412500Y-85600000I87500J0D01*
G01*
X130587500Y-85600000D01*
G75*
G02*
X130675000Y-85687500I0J-87500D01*
G01*
X130675000Y-86412500D01*
G75*
G02*
X130587500Y-86500000I-87500J0D01*
G01*
X130412500Y-86500000D01*
G75*
G02*
X130325000Y-86412500I0J87500D01*
G01*
G37*
G36*
G01*
X129825000Y-86412500D02*
X129825000Y-85687500D01*
G75*
G02*
X129912500Y-85600000I87500J0D01*
G01*
X130087500Y-85600000D01*
G75*
G02*
X130175000Y-85687500I0J-87500D01*
G01*
X130175000Y-86412500D01*
G75*
G02*
X130087500Y-86500000I-87500J0D01*
G01*
X129912500Y-86500000D01*
G75*
G02*
X129825000Y-86412500I0J87500D01*
G01*
G37*
D18*
X131500000Y-88500000D03*
G04 #@! TD*
G04 #@! TO.C,F2*
G36*
G01*
X125745000Y-82225000D02*
X127055000Y-82225000D01*
G75*
G02*
X127325000Y-82495000I0J-270000D01*
G01*
X127325000Y-83305000D01*
G75*
G02*
X127055000Y-83575000I-270000J0D01*
G01*
X125745000Y-83575000D01*
G75*
G02*
X125475000Y-83305000I0J270000D01*
G01*
X125475000Y-82495000D01*
G75*
G02*
X125745000Y-82225000I270000J0D01*
G01*
G37*
G36*
G01*
X125745000Y-85025000D02*
X127055000Y-85025000D01*
G75*
G02*
X127325000Y-85295000I0J-270000D01*
G01*
X127325000Y-86105000D01*
G75*
G02*
X127055000Y-86375000I-270000J0D01*
G01*
X125745000Y-86375000D01*
G75*
G02*
X125475000Y-86105000I0J270000D01*
G01*
X125475000Y-85295000D01*
G75*
G02*
X125745000Y-85025000I270000J0D01*
G01*
G37*
G04 #@! TD*
M02*
