M48
; DRILL file {KiCad (5.1.6)-1} date 04/01/21 10:41:08
; FORMAT={3:3/ absolute / metric / suppress leading zeros}
; #@! TF.CreationDate,2021-04-01T10:41:08+07:00
; #@! TF.GenerationSoftware,Kicad,Pcbnew,(5.1.6)-1
FMAT,2
METRIC,TZ
T1C0.400
T2C0.762
T3C1.000
T4C0.900
%
G90
G05
T1
X117400Y-92400
X117500Y-83600
X123000Y-83600
X123000Y-92500
X125187Y-88113
X125800Y-89750
X126100Y-86900
X126300Y-84400
X126987Y-81113
X127000Y-87700
X127500Y-92625
X127500Y-94200
X127800Y-85700
X128933Y-85824
X129800Y-84650
X131500Y-88125
X133200Y-92600
X134900Y-84200
X135700Y-83400
X135850Y-88800
X136400Y-85300
X136800Y-86800
X139700Y-87000
X141500Y-90100
X141550Y-85250
X143500Y-88800
X145100Y-85400
X145200Y-88800
X146600Y-85200
X146600Y-90350
T2
X139000Y-82200
X141000Y-82200
X143000Y-82200
X138900Y-93700
X140900Y-93700
X142900Y-93700
T3
X150900Y-81600
X150900Y-84140
X150900Y-86680
X150900Y-89220
X150900Y-91760
X150900Y-94300
T4
X120400Y-85900
X120400Y-90300
T0
M30
